<svg width="23" height="31" viewBox="0 0 23 31" fill="none" xmlns="http://www.w3.org/2000/svg">
<path id="Vector" d="M16.4286 6.81348C15.4713 7.16481 14.6844 7.75544 14.0678 8.58537C13.4512 9.4153 13.1429 10.3605 13.1429 11.4211C13.1418 12.4827 13.4495 13.4279 14.0661 14.2567C14.6828 15.0856 15.4702 15.6768 16.4286 16.0303V6.81348ZM16.4286 6.81348V1.63158C16.4286 1.1693 16.5863 0.781532 16.9017 0.468269C17.2171 0.155005 17.607 -0.00108207 18.0714 5.6456e-06L16.4286 6.81348ZM18.0714 13.3026C18.5995 13.3026 19.0543 13.1223 19.4189 12.7601M18.0714 13.3026V13.0526L18.072 13.3026C18.0718 13.3026 18.0716 13.3026 18.0714 13.3026ZM18.0714 13.3026C17.5444 13.3037 17.0901 13.1238 16.7255 12.7618C16.3609 12.3996 16.1787 11.9473 16.1786 11.4216L19.4189 12.7601M19.4189 12.7601C19.7836 12.398 19.9654 11.946 19.9643 11.4211L19.4189 12.7601ZM18.0714 9.53948C17.5434 9.53948 17.0886 9.71983 16.7239 10.082C16.3593 10.4441 16.1775 10.8961 16.1786 11.4211L19.9643 11.4205C19.9641 10.8948 19.7819 10.4425 19.4173 10.0804C19.0528 9.7183 18.5985 9.53838 18.0714 9.53948ZM18.0714 9.53948V9.78948L18.0708 9.53948C18.071 9.53948 18.0712 9.53948 18.0714 9.53948ZM4.89968 20.544L4.89938 20.5437L3.46188 19.116L3.03571 18.6928V19.2934V21.2105C3.03571 23.0727 3.70631 24.6727 5.0399 25.9971C6.37345 27.3215 7.98372 27.9868 9.85714 27.9868C11.7306 27.9868 13.3408 27.3215 14.6744 25.9971C16.008 24.6727 16.6786 23.0727 16.6786 21.2105V16.0303V15.856L16.5151 15.7957C15.6028 15.4592 14.8547 14.8979 14.2667 14.1075C13.6832 13.3231 13.3918 12.4307 13.3929 11.4213V11.4211C13.3929 10.4128 13.6847 9.52011 14.2685 8.73447C14.8565 7.94303 15.6038 7.38248 16.5147 7.04817L16.6786 6.98803V6.81348V1.63158C16.6786 1.23294 16.8118 0.909934 17.0779 0.645653C17.344 0.381313 17.6694 0.249065 18.0708 0.250006H18.0714C18.4744 0.250006 18.8004 0.382914 19.0666 0.647285C19.3327 0.911536 19.4652 1.23381 19.4643 1.63099V1.63158V6.81185V6.98609L19.6278 7.0464C20.54 7.38289 21.288 7.94463 21.876 8.7361C22.4597 9.52172 22.751 10.4137 22.75 11.4208V11.4211C22.75 12.4294 22.4581 13.3293 21.8733 14.1287C21.2859 14.9317 20.5406 15.4844 19.6336 15.7936L19.4643 15.8514V16.0303V21.2105C19.4643 23.8637 18.5322 26.1111 16.6631 27.9674C14.794 29.8236 12.5302 30.75 9.85714 30.75C7.18404 30.75 4.92029 29.8236 3.05117 27.9674C1.18211 26.1111 0.25 23.8637 0.25 21.2105V13.379C0.25 13.2246 0.283091 13.1141 0.33417 13.0338C0.384467 12.9547 0.463751 12.8866 0.588448 12.835C0.71253 12.7836 0.817232 12.7759 0.910135 12.7968C1.00472 12.8182 1.1084 12.8742 1.22026 12.9853L6.88812 18.6142C7.13908 18.8635 7.26607 19.1724 7.26607 19.5594C7.26607 19.9448 7.13979 20.2699 6.8844 20.5473C6.60227 20.8259 6.27584 20.9605 5.89293 20.9605C5.50836 20.9605 5.18145 20.8247 4.89968 20.544Z" fill="#70BF72" stroke="#757980" stroke-width="0.5"/>
</svg>
