<svg width="35" height="34" viewBox="0 0 35 34" fill="none" xmlns="http://www.w3.org/2000/svg">
<g id="Icon">
<g id="Group">
<path id="Vector" d="M5.02165 6.52515C2.34055 7.59705 1 8.133 1 8.7999C1 9.4668 2.34055 10.0014 5.02165 11.0747L8.81245 12.5907C11.4936 13.6653 12.8355 14.1999 14.5 14.1999C16.1659 14.1999 17.5064 13.664 20.1875 12.5921L23.9784 11.0747C26.6595 10.0028 28 9.4668 28 8.7999C28 8.133 26.6595 7.5984 23.9784 6.52515L20.1875 5.0091C17.5064 3.93585 16.1646 3.3999 14.5 3.3999C13.2121 3.3999 12.1186 3.71985 10.45 4.3611" stroke="#4CAF4F" stroke-width="1.5" stroke-linecap="round"/>
<path id="Vector_2" d="M6.0841 11.5L5.02165 11.9252C2.34055 12.9971 1 13.5345 1 14.2C1 14.8656 2.34055 15.4015 5.02165 16.4748L8.81245 17.9908C11.4936 19.0654 12.8355 19.6 14.5 19.6C16.1659 19.6 17.5064 19.0641 20.1875 17.9922L23.9784 16.4748C26.6595 15.4029 28 14.8656 28 14.2C28 13.5345 26.6595 12.9985 23.9784 11.9252L22.9159 11.5" stroke="#4CAF4F" stroke-width="1.5"/>
<path id="Vector_3" d="M23.9784 21.8747C26.6595 20.8028 28 20.2668 28 19.5999C28 18.9344 26.6595 18.3984 23.9784 17.3252L22.9159 16.8999M6.0841 16.8999L5.02165 17.3252C2.34055 18.3971 1 18.9344 1 19.5999C1 20.2668 2.34055 20.8014 5.02165 21.8747L8.81245 23.3907C11.4936 24.4653 12.8355 24.9999 14.5 24.9999C15.7879 24.9999 16.8814 24.68 18.55 24.0387" stroke="#4CAF4F" stroke-width="1.5" stroke-linecap="round"/>
</g>
</g>
</svg>
