<svg width="28" height="22" viewBox="0 0 28 22" fill="none" xmlns="http://www.w3.org/2000/svg">
<mask id="path-1-inside-1_386_918" fill="white">
<path fill-rule="evenodd" clip-rule="evenodd" d="M1.6408 1.6115C-1.19209e-07 3.22162 0 5.81488 0 11C0 16.1851 -1.19209e-07 18.7784 1.6408 20.3885C3.2802 22 5.9206 22 11.2 22H16.8C22.0794 22 24.7198 22 26.3592 20.3885C28 18.7784 28 16.1851 28 11C28 5.81488 28 3.22162 26.3592 1.6115C24.7198 -1.19209e-07 22.0794 0 16.8 0H11.2C5.9206 0 3.2802 -1.19209e-07 1.6408 1.6115ZM15.05 8.25C15.05 7.9765 14.9394 7.71419 14.7425 7.5208C14.5455 7.3274 14.2785 7.21875 14 7.21875C13.7215 7.21875 13.4545 7.3274 13.2575 7.5208C13.0606 7.71419 12.95 7.9765 12.95 8.25V9.21387L12.1002 8.73263C11.86 8.60698 11.5794 8.57786 11.3177 8.65142C11.0561 8.72498 10.8337 8.89546 10.6975 9.12693C10.5614 9.35839 10.522 9.63274 10.5878 9.89214C10.6536 10.1515 10.8194 10.3757 11.0502 10.5174L11.9 10.9986L11.0502 11.4813C10.8089 11.618 10.6327 11.8433 10.5605 12.1076C10.4883 12.3719 10.526 12.6536 10.6652 12.8906C10.8044 13.1277 11.0338 13.3007 11.303 13.3716C11.5721 13.4425 11.8589 13.4055 12.1002 13.2687L12.95 12.7861V13.75C12.95 14.0235 13.0606 14.2858 13.2575 14.4792C13.4545 14.6726 13.7215 14.7812 14 14.7812C14.2785 14.7812 14.5455 14.6726 14.7425 14.4792C14.9394 14.2858 15.05 14.0235 15.05 13.75V12.7875L15.8998 13.2687C16.1411 13.4055 16.4279 13.4425 16.697 13.3716C16.9662 13.3007 17.1956 13.1277 17.3348 12.8906C17.474 12.6536 17.5117 12.3719 17.4395 12.1076C17.3673 11.8433 17.1911 11.618 16.9498 11.4813L16.1 11L16.9498 10.5187C17.1911 10.382 17.3673 10.1567 17.4395 9.89237C17.5117 9.62807 17.474 9.34641 17.3348 9.10938C17.1956 8.87234 16.9662 8.69933 16.697 8.62842C16.4279 8.55751 16.1411 8.5945 15.8998 8.73125L15.05 9.2125V8.25ZM6.6262 7.21875C6.90468 7.21875 7.17175 7.3274 7.36866 7.5208C7.56558 7.71419 7.6762 7.9765 7.6762 8.25V9.2125L8.5246 8.73125C8.76595 8.5945 9.05272 8.55751 9.32184 8.62842C9.59095 8.69933 9.82036 8.87234 9.9596 9.10938C10.0988 9.34641 10.1365 9.62807 10.0643 9.89237C9.9921 10.1567 9.81595 10.382 9.5746 10.5187L8.7248 11L9.5746 11.4813C9.6941 11.549 9.79886 11.6391 9.88288 11.7466C9.9669 11.8541 10.0285 11.9768 10.0643 12.1076C10.1 12.2385 10.1092 12.375 10.0912 12.5094C10.0733 12.6437 10.0285 12.7733 9.9596 12.8906C9.89066 13.008 9.79885 13.1109 9.68942 13.1934C9.57999 13.2759 9.45509 13.3365 9.32184 13.3716C9.18858 13.4067 9.04959 13.4157 8.9128 13.398C8.77601 13.3804 8.6441 13.3365 8.5246 13.2687L7.6762 12.7875V13.75C7.6762 14.0235 7.56558 14.2858 7.36866 14.4792C7.17175 14.6726 6.90468 14.7812 6.6262 14.7812C6.34772 14.7812 6.08065 14.6726 5.88374 14.4792C5.68682 14.2858 5.5762 14.0235 5.5762 13.75V12.7861L4.725 13.2674C4.48476 13.393 4.20422 13.4221 3.94254 13.3486C3.68087 13.275 3.4585 13.1045 3.32233 12.8731C3.18615 12.6416 3.14681 12.3673 3.21261 12.1079C3.2784 11.8485 3.44418 11.6243 3.675 11.4826L4.5248 11L3.675 10.5187C3.5555 10.451 3.45074 10.3609 3.36672 10.2534C3.2827 10.1459 3.22105 10.0232 3.1853 9.89237C3.14955 9.7615 3.1404 9.625 3.15836 9.49065C3.17632 9.3563 3.22106 9.22674 3.29 9.10938C3.35894 8.99201 3.45075 8.88912 3.56018 8.8066C3.66961 8.72408 3.79451 8.66353 3.92776 8.62842C4.06102 8.59331 4.20001 8.58432 4.33679 8.60196C4.47358 8.6196 4.6055 8.66354 4.725 8.73125L5.5762 9.21387V8.25C5.5762 7.9765 5.68682 7.71419 5.88374 7.5208C6.08065 7.3274 6.34772 7.21875 6.6262 7.21875ZM22.4252 8.25C22.4252 7.9765 22.3146 7.71419 22.1177 7.5208C21.9207 7.3274 21.6537 7.21875 21.3752 7.21875C21.0967 7.21875 20.8296 7.3274 20.6327 7.5208C20.4358 7.71419 20.3252 7.9765 20.3252 8.25V9.21387L19.4754 8.73263C19.2352 8.60698 18.9546 8.57786 18.6929 8.65142C18.4313 8.72498 18.2089 8.89546 18.0727 9.12693C17.9366 9.35839 17.8972 9.63274 17.963 9.89214C18.0288 10.1515 18.1946 10.3757 18.4254 10.5174L19.2752 10.9986L18.424 11.4813C18.1827 11.618 18.0065 11.8433 17.9343 12.1076C17.8621 12.3719 17.8998 12.6536 18.039 12.8906C18.1782 13.1277 18.4076 13.3007 18.6768 13.3716C18.9459 13.4425 19.2327 13.4055 19.474 13.2687L20.3252 12.7861V13.75C20.3252 14.0235 20.4358 14.2858 20.6327 14.4792C20.8296 14.6726 21.0967 14.7812 21.3752 14.7812C21.6537 14.7812 21.9207 14.6726 22.1177 14.4792C22.3146 14.2858 22.4252 14.0235 22.4252 13.75V12.7875L23.275 13.2687C23.5163 13.4055 23.8031 13.4425 24.0722 13.3716C24.3414 13.3007 24.5708 13.1277 24.71 12.8906C24.8492 12.6536 24.8869 12.3719 24.8147 12.1076C24.7425 11.8433 24.5663 11.618 24.325 11.4813L23.4752 11L24.325 10.5187C24.5663 10.382 24.7425 10.1567 24.8147 9.89237C24.8869 9.62807 24.8492 9.34641 24.71 9.10938C24.5708 8.87234 24.3414 8.69933 24.0722 8.62842C23.8031 8.55751 23.5163 8.5945 23.275 8.73125L22.4252 9.2125V8.25Z"/>
</mask>
<path fill-rule="evenodd" clip-rule="evenodd" d="M1.6408 1.6115C-1.19209e-07 3.22162 0 5.81488 0 11C0 16.1851 -1.19209e-07 18.7784 1.6408 20.3885C3.2802 22 5.9206 22 11.2 22H16.8C22.0794 22 24.7198 22 26.3592 20.3885C28 18.7784 28 16.1851 28 11C28 5.81488 28 3.22162 26.3592 1.6115C24.7198 -1.19209e-07 22.0794 0 16.8 0H11.2C5.9206 0 3.2802 -1.19209e-07 1.6408 1.6115ZM15.05 8.25C15.05 7.9765 14.9394 7.71419 14.7425 7.5208C14.5455 7.3274 14.2785 7.21875 14 7.21875C13.7215 7.21875 13.4545 7.3274 13.2575 7.5208C13.0606 7.71419 12.95 7.9765 12.95 8.25V9.21387L12.1002 8.73263C11.86 8.60698 11.5794 8.57786 11.3177 8.65142C11.0561 8.72498 10.8337 8.89546 10.6975 9.12693C10.5614 9.35839 10.522 9.63274 10.5878 9.89214C10.6536 10.1515 10.8194 10.3757 11.0502 10.5174L11.9 10.9986L11.0502 11.4813C10.8089 11.618 10.6327 11.8433 10.5605 12.1076C10.4883 12.3719 10.526 12.6536 10.6652 12.8906C10.8044 13.1277 11.0338 13.3007 11.303 13.3716C11.5721 13.4425 11.8589 13.4055 12.1002 13.2687L12.95 12.7861V13.75C12.95 14.0235 13.0606 14.2858 13.2575 14.4792C13.4545 14.6726 13.7215 14.7812 14 14.7812C14.2785 14.7812 14.5455 14.6726 14.7425 14.4792C14.9394 14.2858 15.05 14.0235 15.05 13.75V12.7875L15.8998 13.2687C16.1411 13.4055 16.4279 13.4425 16.697 13.3716C16.9662 13.3007 17.1956 13.1277 17.3348 12.8906C17.474 12.6536 17.5117 12.3719 17.4395 12.1076C17.3673 11.8433 17.1911 11.618 16.9498 11.4813L16.1 11L16.9498 10.5187C17.1911 10.382 17.3673 10.1567 17.4395 9.89237C17.5117 9.62807 17.474 9.34641 17.3348 9.10938C17.1956 8.87234 16.9662 8.69933 16.697 8.62842C16.4279 8.55751 16.1411 8.5945 15.8998 8.73125L15.05 9.2125V8.25ZM6.6262 7.21875C6.90468 7.21875 7.17175 7.3274 7.36866 7.5208C7.56558 7.71419 7.6762 7.9765 7.6762 8.25V9.2125L8.5246 8.73125C8.76595 8.5945 9.05272 8.55751 9.32184 8.62842C9.59095 8.69933 9.82036 8.87234 9.9596 9.10938C10.0988 9.34641 10.1365 9.62807 10.0643 9.89237C9.9921 10.1567 9.81595 10.382 9.5746 10.5187L8.7248 11L9.5746 11.4813C9.6941 11.549 9.79886 11.6391 9.88288 11.7466C9.9669 11.8541 10.0285 11.9768 10.0643 12.1076C10.1 12.2385 10.1092 12.375 10.0912 12.5094C10.0733 12.6437 10.0285 12.7733 9.9596 12.8906C9.89066 13.008 9.79885 13.1109 9.68942 13.1934C9.57999 13.2759 9.45509 13.3365 9.32184 13.3716C9.18858 13.4067 9.04959 13.4157 8.9128 13.398C8.77601 13.3804 8.6441 13.3365 8.5246 13.2687L7.6762 12.7875V13.75C7.6762 14.0235 7.56558 14.2858 7.36866 14.4792C7.17175 14.6726 6.90468 14.7812 6.6262 14.7812C6.34772 14.7812 6.08065 14.6726 5.88374 14.4792C5.68682 14.2858 5.5762 14.0235 5.5762 13.75V12.7861L4.725 13.2674C4.48476 13.393 4.20422 13.4221 3.94254 13.3486C3.68087 13.275 3.4585 13.1045 3.32233 12.8731C3.18615 12.6416 3.14681 12.3673 3.21261 12.1079C3.2784 11.8485 3.44418 11.6243 3.675 11.4826L4.5248 11L3.675 10.5187C3.5555 10.451 3.45074 10.3609 3.36672 10.2534C3.2827 10.1459 3.22105 10.0232 3.1853 9.89237C3.14955 9.7615 3.1404 9.625 3.15836 9.49065C3.17632 9.3563 3.22106 9.22674 3.29 9.10938C3.35894 8.99201 3.45075 8.88912 3.56018 8.8066C3.66961 8.72408 3.79451 8.66353 3.92776 8.62842C4.06102 8.59331 4.20001 8.58432 4.33679 8.60196C4.47358 8.6196 4.6055 8.66354 4.725 8.73125L5.5762 9.21387V8.25C5.5762 7.9765 5.68682 7.71419 5.88374 7.5208C6.08065 7.3274 6.34772 7.21875 6.6262 7.21875ZM22.4252 8.25C22.4252 7.9765 22.3146 7.71419 22.1177 7.5208C21.9207 7.3274 21.6537 7.21875 21.3752 7.21875C21.0967 7.21875 20.8296 7.3274 20.6327 7.5208C20.4358 7.71419 20.3252 7.9765 20.3252 8.25V9.21387L19.4754 8.73263C19.2352 8.60698 18.9546 8.57786 18.6929 8.65142C18.4313 8.72498 18.2089 8.89546 18.0727 9.12693C17.9366 9.35839 17.8972 9.63274 17.963 9.89214C18.0288 10.1515 18.1946 10.3757 18.4254 10.5174L19.2752 10.9986L18.424 11.4813C18.1827 11.618 18.0065 11.8433 17.9343 12.1076C17.8621 12.3719 17.8998 12.6536 18.039 12.8906C18.1782 13.1277 18.4076 13.3007 18.6768 13.3716C18.9459 13.4425 19.2327 13.4055 19.474 13.2687L20.3252 12.7861V13.75C20.3252 14.0235 20.4358 14.2858 20.6327 14.4792C20.8296 14.6726 21.0967 14.7812 21.3752 14.7812C21.6537 14.7812 21.9207 14.6726 22.1177 14.4792C22.3146 14.2858 22.4252 14.0235 22.4252 13.75V12.7875L23.275 13.2687C23.5163 13.4055 23.8031 13.4425 24.0722 13.3716C24.3414 13.3007 24.5708 13.1277 24.71 12.8906C24.8492 12.6536 24.8869 12.3719 24.8147 12.1076C24.7425 11.8433 24.5663 11.618 24.325 11.4813L23.4752 11L24.325 10.5187C24.5663 10.382 24.7425 10.1567 24.8147 9.89237C24.8869 9.62807 24.8492 9.34641 24.71 9.10938C24.5708 8.87234 24.3414 8.69933 24.0722 8.62842C23.8031 8.55751 23.5163 8.5945 23.275 8.73125L22.4252 9.2125V8.25Z" fill="#70BF72" stroke="#757980" stroke-width="0.6" mask="url(#path-1-inside-1_386_918)"/>
</svg>
