<svg width="35" height="35" viewBox="0 0 35 35" fill="none" xmlns="http://www.w3.org/2000/svg">
<g id="Icon">
<g id="Vector">
<path d="M28.7165 29.8839V27.0997C28.7165 25.6228 28.1299 24.2064 27.0856 23.1621C26.0412 22.1178 24.6249 21.5311 23.148 21.5311H21.7558C21.3866 21.5311 21.0325 21.3844 20.7715 21.1234C20.5104 20.8623 20.3637 20.5082 20.3637 20.139V13.1783C20.3637 12.4398 20.0704 11.7316 19.5482 11.2095C19.0261 10.6873 18.3179 10.394 17.5794 10.394C16.841 10.394 16.1328 10.6873 15.6107 11.2095C15.0885 11.7316 14.7952 12.4398 14.7952 13.1783V25.7075L11.454 21.2527C11.1947 20.9069 10.8584 20.6262 10.4718 20.4329C10.0852 20.2396 9.65885 20.139 9.2266 20.139H8.62241C7.41821 20.139 6.44232 21.1149 6.44232 22.3191C6.44232 22.7144 6.54952 23.1028 6.75277 23.4411L10.6187 29.8839M17.5794 6.21758V4.82544V6.21758ZM25.9323 14.5704H27.3244H25.9323ZM7.83446 14.5704H9.2266H7.83446ZM11.0962 8.08722L10.112 7.10298L11.0962 8.08722ZM24.0626 8.08722L25.0469 7.10298L24.0626 8.08722Z" fill="#4CAF4F"/>
<path d="M28.7165 29.8839V27.0997C28.7165 25.6228 28.1299 24.2064 27.0856 23.1621C26.0412 22.1178 24.6249 21.5311 23.148 21.5311H21.7559C21.3866 21.5311 21.0325 21.3844 20.7715 21.1234C20.5104 20.8623 20.3637 20.5082 20.3637 20.139V13.1783C20.3637 12.4398 20.0704 11.7316 19.5482 11.2095C19.0261 10.6873 18.3179 10.394 17.5794 10.394V10.394C16.841 10.394 16.1328 10.6873 15.6107 11.2095C15.0885 11.7316 14.7952 12.4398 14.7952 13.1783V25.7075L11.454 21.2527C11.1947 20.9069 10.8584 20.6262 10.4718 20.4329C10.0852 20.2396 9.65885 20.139 9.2266 20.139H8.62241C7.41821 20.139 6.44232 21.1149 6.44232 22.3191C6.44232 22.7144 6.54952 23.1028 6.75277 23.4411L10.6187 29.8839M17.5794 6.21758V4.82544M25.9323 14.5704H27.3244M7.83446 14.5704H9.2266M11.0962 8.08722L10.112 7.10298M24.0626 8.08722L25.0469 7.10298" stroke="#4CAF4F" stroke-width="1.39214" stroke-linecap="round" stroke-linejoin="round"/>
</g>
</g>
</svg>
