<svg width="26" height="26" viewBox="0 0 26 26" fill="none" xmlns="http://www.w3.org/2000/svg">
<path d="M14.125 13.2567V14.4639L14.9786 13.6103L19.8949 8.69398L21.4855 10.2846L13 18.7702L4.51451 10.2862L6.10518 8.69555L11.0215 13.6104L11.875 14.4636V13.2567V1.625C11.875 1.32663 11.9935 1.04048 12.2045 0.829505L11.851 0.475952L12.2045 0.829505C12.4155 0.618526 12.7016 0.5 13 0.5C13.2984 0.5 13.5845 0.618526 13.7955 0.829505C14.0065 1.04048 14.125 1.32663 14.125 1.625V13.2567Z" fill="#70BF72" stroke="#7C8088"/>
<path d="M23.25 22.75V16.75H25.5V22.75C25.5 23.4793 25.2103 24.1788 24.6945 24.6945C24.1788 25.2103 23.4793 25.5 22.75 25.5H3.25C2.52065 25.5 1.82118 25.2103 1.30546 24.6945C0.789731 24.1788 0.5 23.4793 0.5 22.75V16.75H2.75V22.75V23.25H3.25H22.75H23.25V22.75Z" fill="#70BF72" stroke="#7C8088"/>
</svg>
