<svg width="46" height="40" viewBox="0 0 46 40" fill="none" xmlns="http://www.w3.org/2000/svg">
<path d="M45.7923 26.6199C45.7923 33.5396 40.1828 39.1492 33.263 39.1492L14.4692 39.1492C12.547 39.1492 10.9888 37.591 10.9888 35.6688L10.9888 12.0025C10.9888 8.15817 14.1052 5.04176 17.9495 5.04176L42.312 5.04177C44.2341 5.04177 45.7923 6.59997 45.7923 8.52211L45.7923 26.6199Z" fill="#E8ECF5"/>
<g clip-path="url(#clip0_211_2100)">
<path d="M31 17C31 9.26806 24.7319 3 17 3C9.26806 3 3 9.26795 3 17C3 23.9878 8.11963 29.7797 14.8125 30.8299V21.0469H11.2578V17H14.8125V13.9156C14.8125 10.4069 16.9027 8.46875 20.1005 8.46875C21.6322 8.46875 23.2344 8.74219 23.2344 8.74219V12.1875H21.4691C19.7298 12.1875 19.1875 13.2667 19.1875 14.3739V17H23.0703L22.4496 21.0469H19.1875V30.8299C25.8804 29.7797 31 23.9879 31 17Z" fill="#1877F2"/>
<path d="M22.4496 21.0469L23.0703 17H19.1875V14.3739C19.1875 13.2666 19.7299 12.1875 21.4691 12.1875H23.2344V8.74219C23.2344 8.74219 21.6322 8.46875 20.1005 8.46875C16.9027 8.46875 14.8125 10.4069 14.8125 13.9156V17H11.2578V21.0469H14.8125V30.8299C15.5361 30.9433 16.2675 31.0002 17 31C17.7325 31.0002 18.4639 30.9434 19.1875 30.8299V21.0469H22.4496Z" fill="white"/>
</g>
<defs>
<clipPath id="clip0_211_2100">
<rect width="28" height="28" fill="white" transform="translate(3 3)"/>
</clipPath>
</defs>
</svg>
