<svg width="35" height="18" viewBox="0 0 35 18" fill="none" xmlns="http://www.w3.org/2000/svg">
<path id="Vector" d="M8.88889 16H2L7.97611 7.85093C8.34312 7.44128 8.60907 6.94898 8.75209 6.41457C8.8951 5.88016 8.91109 5.3189 8.79874 4.77698C8.68639 4.23506 8.4489 3.72799 8.10584 3.29748C7.76277 2.86696 7.32392 2.52533 6.82541 2.30068C6.3269 2.07603 5.78298 1.9748 5.23841 2.00531C4.69383 2.03582 4.16418 2.1972 3.69304 2.47618C3.2219 2.75515 2.82273 3.14374 2.52839 3.60996C2.23405 4.07618 2.05295 4.60671 2 5.15789M14.0556 16V2.01018H20.9444M14.0556 9.00509H19.2222M26.1111 16V5.50763C26.1111 4.58005 26.474 3.69046 27.12 3.03456C27.7659 2.37866 28.642 2.01018 29.5556 2.01018C30.4691 2.01018 31.3452 2.37866 31.9911 3.03456C32.6371 3.69046 33 4.58005 33 5.50763V16M26.1111 10.7538H33" stroke="#70BF72" stroke-width="3" stroke-linecap="round" stroke-linejoin="round"/>
</svg>
