<svg width="12" height="13" viewBox="0 0 12 13" fill="none" xmlns="http://www.w3.org/2000/svg">
<path fill-rule="evenodd" clip-rule="evenodd" d="M5.98918 0.197754C4.37601 0.197754 4.17356 0.204807 3.53998 0.233641C2.90763 0.262597 2.476 0.362709 2.09833 0.509596C1.70766 0.66131 1.37626 0.864255 1.04611 1.19454C0.715701 1.52469 0.512756 1.85609 0.360547 2.24663C0.213288 2.62443 0.113053 3.05619 0.084591 3.68828C0.0562529 4.32187 0.0488281 4.52444 0.0488281 6.13761C0.0488281 7.75077 0.0560055 7.9526 0.0847147 8.58619C0.113795 9.21854 0.213907 9.65017 0.360671 10.0278C0.512508 10.4185 0.715453 10.7499 1.04573 11.0801C1.37577 11.4105 1.70716 11.6139 2.09758 11.7656C2.47551 11.9125 2.90726 12.0126 3.53948 12.0416C4.17307 12.0704 4.37539 12.0775 5.98844 12.0775C7.60173 12.0775 7.80356 12.0704 8.43714 12.0416C9.06949 12.0126 9.50161 11.9125 9.87954 11.7656C10.2701 11.6139 10.601 11.4105 10.931 11.0801C11.2614 10.7499 11.4644 10.4185 11.6166 10.028C11.7626 9.65017 11.8628 9.21841 11.8925 8.58631C11.921 7.95273 11.9284 7.75077 11.9284 6.13761C11.9284 4.52444 11.921 4.32199 11.8925 3.68841C11.8628 3.05606 11.7626 2.62443 11.6166 2.24676C11.4644 1.85609 11.2614 1.52469 10.931 1.19454C10.6006 0.864131 10.2702 0.661186 9.87916 0.509596C9.5005 0.362709 9.06862 0.262597 8.43627 0.233641C7.80269 0.204807 7.60098 0.197754 5.98732 0.197754H5.98918ZM5.4563 1.26815C5.61445 1.2679 5.79091 1.26815 5.98915 1.26815C7.57509 1.26815 7.76307 1.27384 8.38935 1.3023C8.96848 1.32878 9.2828 1.42555 9.49218 1.50686C9.76937 1.61452 9.967 1.74321 10.1748 1.95111C10.3827 2.159 10.5114 2.357 10.6193 2.63419C10.7006 2.84332 10.7975 3.15764 10.8238 3.73678C10.8523 4.36294 10.8585 4.55103 10.8585 6.13623C10.8585 7.72143 10.8523 7.90952 10.8238 8.53568C10.7973 9.11482 10.7006 9.42914 10.6193 9.63827C10.5116 9.91546 10.3827 10.1128 10.1748 10.3206C9.96688 10.5285 9.7695 10.6572 9.49218 10.7649C9.28305 10.8465 8.96848 10.9431 8.38935 10.9695C7.76319 10.998 7.57509 11.0042 5.98915 11.0042C4.40309 11.0042 4.21512 10.998 3.58896 10.9695C3.00982 10.9428 2.6955 10.846 2.486 10.7647C2.20881 10.6571 2.01081 10.5284 1.80292 10.3205C1.59502 10.1126 1.46632 9.91509 1.35842 9.63778C1.27712 9.42864 1.18022 9.11433 1.15386 8.53519C1.1254 7.90903 1.11971 7.72093 1.11971 6.13475C1.11971 4.54856 1.1254 4.36145 1.15386 3.73529C1.18035 3.15616 1.27712 2.84184 1.35842 2.63246C1.46608 2.35527 1.59502 2.15727 1.80292 1.94938C2.01081 1.74148 2.20881 1.61278 2.486 1.50488C2.69538 1.4232 3.00982 1.32668 3.58896 1.30008C4.13691 1.27533 4.34926 1.2679 5.4563 1.26666V1.26815ZM9.1598 2.25441C8.76629 2.25441 8.44702 2.57331 8.44702 2.96695C8.44702 3.36046 8.76629 3.67973 9.1598 3.67973C9.55332 3.67973 9.87258 3.36046 9.87258 2.96695C9.87258 2.57343 9.55332 2.25441 9.1598 2.25441ZM5.98919 3.08723C4.30462 3.08723 2.93882 4.45302 2.93882 6.13759C2.93882 7.82216 4.30462 9.18734 5.98919 9.18734C7.67376 9.18734 9.03906 7.82216 9.03906 6.13759C9.03906 4.45302 7.67376 3.08723 5.98919 3.08723ZM5.98916 4.15764C7.08259 4.15764 7.96912 5.04404 7.96912 6.13759C7.96912 7.23102 7.08259 8.11754 5.98916 8.11754C4.89561 8.11754 4.00921 7.23102 4.00921 6.13759C4.00921 5.04404 4.89561 4.15764 5.98916 4.15764Z" fill="white"/>
</svg>
