<svg width="58" height="56" viewBox="0 0 58 56" fill="none" xmlns="http://www.w3.org/2000/svg">
<path d="M11.8222 14.0532L4.89859 4.41723L15.3293 9.03904L11.8222 14.0532Z" fill="#D9D9D9" stroke="#263238"/>
<path d="M43.6167 29.9176L38.0983 22.1919L42.8809 19.6166L43.6167 29.9176Z" fill="#CECECE" stroke="#263238"/>
<path d="M45.0545 25.2828L44.5721 20.1344L52.7325 26.6291L45.0545 25.2828Z" fill="#4CAF4F" stroke="#263238"/>
<path d="M12.1088 54.2496L8.4296 49.3303L14.0077 50.4991L12.1088 54.2496Z" fill="#BDBDBD" stroke="#263238" stroke-width="0.5"/>
<path d="M14.7292 52.3966L22.8307 36.5908L27.0008 40.3818L14.7292 52.3966Z" fill="#4CAF4F" stroke="#263238"/>
<path d="M12.9684 15.1946L16.7495 9.78883L28.5145 14.0811L25.6013 26.1502L12.9684 15.1946Z" fill="#D9D9D9" stroke="#263238"/>
<path d="M23.643 34.7569L26.6176 29.019L42.2834 32.7292L28.71 39.1732L23.643 34.7569Z" fill="#4CAF4F" stroke="#263238"/>
<path d="M27.1789 27.3855L30.286 14.9811L42.707 31.2034L27.1789 27.3855Z" fill="#4CAF4F" stroke="#263238"/>
</svg>
