<svg width="73" height="40" viewBox="0 0 73 40" fill="none" xmlns="http://www.w3.org/2000/svg">
<path d="M72.9186 27.1199C72.9186 34.0396 67.309 39.6492 60.3893 39.6492L41.5955 39.6492C39.6733 39.6492 38.1151 38.091 38.1151 36.1688L38.1151 12.5025C38.1151 8.65817 41.2315 5.54176 45.0758 5.54176L69.4382 5.54177C71.3604 5.54177 72.9186 7.09997 72.9186 9.02211L72.9186 27.1199Z" fill="#E8ECF5"/>
<g clip-path="url(#clip0_211_2091)">
<path d="M11.3882 32.4413V29.1887H12.1139V32.4413L11.3882 32.4413ZM15.8243 32.4413L14.2222 30.3743V32.4423H13.5058V29.1887H14.1751L15.7207 31.1918V29.1887H16.4371V32.4413L15.8243 32.4413ZM19.0473 29.8485V32.4413H18.3215V29.8485H17.3176V29.1887H20.0512V29.8485H19.0473ZM20.9296 32.4413V29.1887H23.4185V29.8248H21.647V30.4722H23.202V31.1083H21.647V31.8042H23.4384V32.4403L20.9296 32.4413ZM26.6457 32.4413L25.9346 31.4011H25.3647V32.4423H24.6389V29.1887H26.1437C26.9218 29.1887 27.3882 29.5929 27.3882 30.2619V30.2712C27.4098 30.7259 27.1204 31.1387 26.6812 31.2794L27.4875 32.4413H26.6457ZM26.6603 30.299C26.6603 29.9898 26.4439 29.8341 26.0904 29.8341H25.3688V30.7681H26.1009C26.4543 30.7681 26.6572 30.5825 26.6572 30.3083L26.6603 30.299ZM30.904 32.4413L29.3061 30.3733V32.4413H28.5898V29.1887H29.259L30.8047 31.1918V29.1887H31.521V32.4413L30.904 32.4413ZM35.1393 32.4413L34.8381 31.7114H33.4399L33.1388 32.4413H32.3984L33.8122 29.165H34.4815L35.8954 32.4413H35.1393ZM34.1375 30.0258L33.6993 31.0805H34.5756L34.1375 30.0258ZM37.7976 29.8496V32.4423H37.0718V29.8485H36.0679V29.1887H38.8015V29.8485L37.7976 29.8496ZM39.7573 32.4423V29.1887H40.4831V32.4413L39.7573 32.4423ZM43.3694 32.498C42.3529 32.5001 41.6209 31.7495 41.6209 30.8248V30.8155C41.6209 29.8877 42.3612 29.1331 43.3788 29.1331C44.3963 29.1331 45.1273 29.8815 45.1273 30.8063V30.8155C45.1283 31.7403 44.389 32.5001 43.3704 32.5001L43.3694 32.498ZM44.368 30.8155C44.3871 30.2698 43.9538 29.8122 43.4003 29.7934C43.39 29.7931 43.3797 29.7929 43.3694 29.7928C42.7848 29.7928 42.379 30.2485 42.379 30.8062V30.8155C42.36 31.3612 42.7933 31.8188 43.3468 31.8376C43.3571 31.838 43.3674 31.8382 43.3777 31.8382C43.9623 31.8382 44.368 31.3825 44.368 30.8248V30.8155ZM48.6274 32.4413L47.0295 30.3733V32.4413H46.3163V29.1887H46.9856L48.5312 31.1918V29.1887H49.2475V32.4413L48.6274 32.4413ZM52.8627 32.4413L52.5615 31.7114H51.1696L50.8684 32.4413H50.128L51.5419 29.165H52.2112L53.625 32.4413H52.8627ZM51.8692 30.0258L51.431 31.0805H52.3074L51.8692 30.0258ZM54.4449 32.4423V29.1887H55.1707V31.7908H56.8156V32.4413L54.4449 32.4423Z" fill="black"/>
<path d="M34.1689 18.801C33.7835 18.602 33.3572 18.492 32.9223 18.4794C32.0544 18.4794 31.5629 19.0979 31.4342 19.3041V25.935H28.8021V16.6412H31.2136L31.3642 17.6144C31.4687 17.4454 32.0962 16.4412 33.3406 16.4412C33.6225 16.4449 33.9021 16.4925 34.1689 16.5825V18.801H34.1689ZM40.4151 16.5825C40.1484 16.4925 39.8688 16.4449 39.5869 16.4412C38.3414 16.4412 37.7182 17.4454 37.6104 17.6144L37.4599 16.6412H35.0484V25.936H37.6805V19.3041C37.8133 19.0928 38.2996 18.4794 39.1686 18.4794C39.6035 18.492 40.0298 18.602 40.4152 18.801L40.4151 16.5825ZM27.1895 19.3093V25.9361H24.7739L24.6233 24.967C24.457 25.1258 23.6821 26.1361 22.0852 26.1361C20.5793 26.1361 19.5399 25.002 19.5399 23.4752C19.5399 20.1866 23.474 19.7237 24.5595 19.6154V19.3515C24.5595 18.8134 24.1014 18.2546 22.8863 18.2546C21.6021 18.2546 20.6128 18.9546 20.435 19.0794V17.1629C21.4611 16.678 22.5861 16.4311 23.7239 16.4412C26.1438 16.4392 27.1895 17.5289 27.1895 19.3093ZM24.5574 21.4319C23.7208 21.4319 22.1929 21.7155 22.1929 23.0165C22.1929 23.6763 22.651 24.1505 23.2251 24.1505C23.9718 24.1505 24.5574 23.6227 24.5574 22.434L24.5574 21.4319ZM10.1124 13.8856L12.4789 18.8917L11.5503 20.8505L7.60261 12.5L4.59503 13.8825L6.95948 18.8814C6.77438 19.2711 6.47738 19.9051 5.99634 20.9144C4.91503 23.1938 4.07843 23.8319 2.5966 23.8319C2.18909 23.8247 1.78559 23.7512 1.40235 23.6144L0 26.5773C0.710384 26.8689 1.47057 27.0246 2.24 27.0361C3.99373 27.0361 5.28209 25.9124 6.4021 23.5433L7.78249 20.6258L10.2923 25.9392H13.9524L12.3671 22.5886L13.2957 20.6299L15.8055 25.9433H19.4656L13.12 12.5L10.1124 13.8856ZM62.6646 16.6423V13.567L60.0324 14.7773V16.6423H59.1895V18.2588H60.0334V25.9371H62.6656V18.2577H64V16.6412L62.6646 16.6423ZM41.4003 25.9371H44.0324V16.6412H41.4003V25.9371ZM57.075 13.566L54.4429 14.7763V16.6412H53.5989V18.2577H54.4429V25.9361H57.075V18.2577H58.4104V16.6412H57.075V13.566ZM52.984 20.5237V22.0526C52.984 24.268 51.886 26.1371 49.189 26.1371C46.492 26.1371 45.394 24.2814 45.394 22.0526V20.5247C45.394 18.3 46.492 16.4402 49.189 16.4402C51.886 16.4402 52.984 18.3093 52.984 20.5247V20.5237ZM50.331 20.1557C50.331 19.0443 50.057 18.2557 49.189 18.2557C48.321 18.2557 48.047 19.0443 48.047 20.1557V22.4237C48.047 23.535 48.3158 24.3237 49.189 24.3237C50.0622 24.3237 50.331 23.535 50.331 22.4237V20.1557Z" fill="black"/>
</g>
<defs>
<clipPath id="clip0_211_2091">
<rect width="64" height="20" fill="white" transform="translate(0 12.5)"/>
</clipPath>
</defs>
</svg>
