<svg width="309" height="302" viewBox="0 0 309 302" fill="none" xmlns="http://www.w3.org/2000/svg">
<path d="M262.909 301.803C262.909 301.904 212.953 301.99 151.351 301.99C89.7479 301.99 39.7708 301.904 39.7708 301.803C39.7708 301.703 89.7191 301.616 151.351 301.616C212.982 301.616 262.909 301.71 262.909 301.803Z" fill="#263238"/>
<path d="M214.234 213.734C203.119 205.971 200.601 191.561 201.04 178.605C201.112 176.447 200.875 174.159 201.903 172.267C202.932 170.375 205.335 169.073 207.27 169.979C208.875 170.735 209.572 172.605 210.472 174.152C211.671 176.212 213.43 177.89 215.543 178.993C216.917 179.713 218.622 180.144 219.982 179.396C221.853 178.368 222.068 175.799 222.054 173.641C222.054 169.627 222.03 165.617 221.982 161.613C221.853 159.462 222.071 157.305 222.63 155.224C223.299 153.181 224.788 151.289 226.824 150.714C228.86 150.138 231.399 151.325 231.86 153.426C231.939 154.315 231.96 155.209 231.924 156.102C231.982 157.001 232.399 157.987 233.241 158.26C234.083 158.533 234.96 157.908 235.608 157.275C237.823 155.116 239.334 152.303 240.737 149.527C242.14 146.75 243.514 143.894 245.528 141.527C247.543 139.16 250.327 137.282 253.442 137.102C256.557 136.923 259.801 138.836 260.578 141.858C261.355 144.879 259.593 147.965 257.701 150.419C254.846 154.06 251.48 157.27 247.708 159.951C246.972 160.353 246.384 160.981 246.032 161.742C245.564 163.181 246.924 164.62 248.341 165.073C249.945 165.605 251.686 165.44 253.377 165.641C255.068 165.843 256.866 166.576 257.506 168.159C258.384 170.361 256.542 172.663 254.737 174.173C251.111 177.195 246.994 179.572 242.564 181.202C240.982 181.777 239.32 182.288 238.039 183.396C236.759 184.504 235.996 186.439 236.766 187.957C237.536 189.475 239.514 189.957 241.176 189.648C242.838 189.338 244.312 188.446 245.895 187.849C248.852 186.734 252.665 186.936 254.528 189.49C255.105 190.369 255.471 191.371 255.595 192.416C255.72 193.46 255.601 194.52 255.247 195.511C254.527 197.483 253.419 199.291 251.989 200.827C247.277 206.457 241.155 210.734 234.248 213.223C227.392 215.597 221.04 216.244 214.227 213.748" fill="#4CAF4F"/>
<path d="M257.413 138.879C257.413 138.879 257.348 138.951 257.204 139.081L256.564 139.649C256.003 140.153 255.176 140.886 254.132 141.858C251.175 144.604 248.429 147.569 245.917 150.728C244.313 152.721 242.651 154.98 240.881 157.433C239.111 159.886 237.284 162.533 235.471 165.346C233.538 168.312 231.768 171.382 230.169 174.54C229.334 176.188 228.601 177.907 227.845 179.662L225.615 185.022C222.675 191.773 220.115 198.683 217.946 205.719C216.199 211.477 214.995 217.385 214.349 223.366C213.931 227.403 213.863 231.469 214.148 235.517C214.263 236.956 214.371 238.057 214.472 238.805C214.515 239.164 214.543 239.452 214.572 239.661V239.956C214.541 239.862 214.52 239.766 214.508 239.668C214.472 239.459 214.428 239.179 214.371 238.819C214.241 238.1 214.105 236.963 213.975 235.524C213.628 231.468 213.652 227.389 214.047 223.338C214.653 217.33 215.831 211.395 217.565 205.611C219.716 198.555 222.269 191.628 225.212 184.864L227.5 179.526C228.255 177.778 228.996 176.044 229.838 174.389C231.448 171.221 233.233 168.144 235.183 165.174C237.025 162.296 238.881 159.692 240.629 157.26C242.377 154.829 244.068 152.555 245.665 150.57C248.202 147.419 250.986 144.475 253.989 141.764C255.053 140.807 255.902 140.088 256.478 139.606L257.147 139.066C257.229 138.995 257.318 138.932 257.413 138.879Z" fill="#263238"/>
<path d="M229.932 174.375C229.83 174.078 229.76 173.772 229.723 173.461C229.608 172.864 229.478 172.022 229.327 170.929C229.018 168.771 228.701 165.814 228.363 162.541C228.025 159.267 227.644 156.303 227.327 154.167C227.162 153.102 227.018 152.246 226.917 151.649C226.839 151.343 226.798 151.029 226.795 150.714C226.919 151.002 227.008 151.304 227.061 151.613C227.219 152.203 227.399 153.052 227.601 154.123C228.011 156.282 228.414 159.217 228.752 162.497C229.09 165.778 229.378 168.655 229.601 170.893C229.709 171.9 229.802 172.756 229.874 173.44C229.93 173.748 229.949 174.062 229.932 174.375Z" fill="#263238"/>
<path d="M257.614 169.209C257.264 169.286 256.908 169.329 256.55 169.339C255.83 169.404 254.809 169.49 253.542 169.634C251.01 169.907 247.528 170.411 243.708 171.13C239.888 171.85 236.457 172.663 233.989 173.289C232.759 173.605 231.766 173.893 231.111 174.087C230.762 174.211 230.4 174.298 230.032 174.346C230.365 174.179 230.711 174.042 231.068 173.936C231.744 173.699 232.723 173.368 233.946 173.015C236.399 172.296 239.831 171.44 243.665 170.706C246.913 170.085 250.191 169.629 253.485 169.339C254.758 169.231 255.787 169.188 256.506 169.174C256.876 169.148 257.247 169.16 257.614 169.209Z" fill="#263238"/>
<path d="M217.917 205.108C217.841 205.004 217.778 204.89 217.73 204.77L217.256 203.77C216.846 202.899 216.292 201.611 215.63 200.036C214.292 196.871 212.587 192.439 210.774 187.518C208.961 182.598 207.292 178.166 206.026 174.965C205.407 173.411 204.896 172.137 204.515 171.188L204.112 170.159C204.056 170.04 204.017 169.914 203.997 169.785C204.074 169.889 204.137 170.003 204.184 170.123L204.659 171.123C205.062 171.994 205.623 173.281 206.285 174.857C207.623 178.022 209.328 182.454 211.141 187.374C212.954 192.295 214.623 196.727 215.889 199.928C216.507 201.482 217.018 202.755 217.392 203.705C217.558 204.115 217.694 204.424 217.802 204.734C217.858 204.852 217.897 204.978 217.917 205.108Z" fill="#263238"/>
<path d="M254.665 193.259C254.55 193.325 254.426 193.376 254.298 193.41L253.233 193.77L249.298 195.043C245.974 196.123 241.385 197.662 236.349 199.36C231.313 201.058 226.701 202.568 223.356 203.576C221.687 204.086 220.327 204.475 219.385 204.734L218.299 205.014C218.172 205.054 218.042 205.081 217.91 205.094C218.025 205.027 218.149 204.977 218.277 204.942L219.342 204.583L223.277 203.309C226.601 202.23 231.191 200.691 236.226 198.993C241.262 197.295 245.866 195.784 249.212 194.777C250.888 194.266 252.24 193.878 253.19 193.619L254.276 193.338C254.403 193.298 254.533 193.272 254.665 193.259Z" fill="#263238"/>
<path d="M239.672 18.7528L235.967 20.0765L234.377 15.2349C231.457 6.30711 222.147 1.56623 213.594 4.58054C205.04 7.59485 200.486 17.386 203.407 26.3138L204.997 31.1554L201.278 32.4863C199.859 33.0364 198.708 34.1119 198.062 35.4892C197.416 36.8665 197.326 38.4397 197.81 39.8818L208.119 71.3846C208.333 72.0985 208.688 72.7621 209.164 73.3359C209.639 73.9098 210.225 74.3822 210.887 74.7251C211.549 75.0681 212.273 75.2745 213.016 75.3321C213.759 75.3898 214.506 75.2975 215.212 75.0608L253.607 61.3273C255.044 60.7782 256.212 59.6932 256.866 58.3005C257.519 56.9078 257.607 55.316 257.111 53.8599L246.794 22.3571C246.575 21.6452 246.214 20.9848 245.734 20.4154C245.253 19.8459 244.663 19.3791 243.999 19.0427C243.334 18.7063 242.608 18.5073 241.865 18.4575C241.122 18.4077 240.376 18.5081 239.672 18.7528ZM210.407 23.7887C209.619 21.4673 209.761 18.9312 210.801 16.7118C211.842 14.4923 213.701 12.7617 215.989 11.8825C217.119 11.4959 218.315 11.3409 219.507 11.4267C220.698 11.5125 221.859 11.8373 222.922 12.3818C223.985 12.9263 224.927 13.6794 225.693 14.596C226.458 15.5126 227.031 16.574 227.378 17.7169L228.96 22.5585L211.989 28.6303L210.407 23.7887ZM231.989 51.7448L234.622 59.7878C234.67 59.949 234.655 60.1227 234.578 60.2728C234.502 60.4228 234.371 60.5377 234.212 60.5935L230.521 61.91C230.375 61.9507 230.218 61.933 230.083 61.8606C229.949 61.7882 229.848 61.6667 229.802 61.5215L227.147 53.5145C225.684 53.4348 224.279 52.9098 223.122 52.0098C221.965 51.1098 221.11 49.8778 220.673 48.4787C220.047 46.6291 220.161 44.6091 220.991 42.8417C221.821 41.0743 223.303 39.6966 225.126 38.9969C226.026 38.6894 226.979 38.5662 227.927 38.6348C228.876 38.7033 229.801 38.9621 230.648 39.3958C231.494 39.8294 232.245 40.4291 232.855 41.159C233.465 41.8889 233.921 42.7341 234.198 43.6443C234.66 45.0655 234.699 46.5909 234.308 48.0335C233.917 49.4762 233.113 50.7734 231.996 51.7664L231.989 51.7448Z" fill="#4CAF4F"/>
<path d="M235.802 19.9902C235.802 20.0909 228.932 22.6736 220.385 25.7455C211.838 28.8173 204.867 31.2849 204.831 31.213C204.795 31.141 211.702 28.5368 220.256 25.4577C228.809 22.3787 235.766 19.8967 235.802 19.9902Z" fill="#263238"/>
<path d="M243.96 21.314C243.992 21.3764 244.018 21.4414 244.039 21.5082C244.097 21.6521 244.161 21.8391 244.248 22.0693C244.435 22.5945 244.694 23.3211 245.017 24.2276L247.78 32.2705C248.931 35.6805 250.305 39.7236 251.83 44.2127C252.55 46.4644 253.399 48.8097 254.19 51.2772C254.613 52.5488 254.796 53.8882 254.729 55.2268C254.668 55.9229 254.47 56.6002 254.147 57.2195C253.801 57.8368 253.339 58.3815 252.787 58.8238C251.676 59.6351 250.442 60.2641 249.132 60.6871L245.428 62.018L238.413 64.5287L226.536 68.7588L218.515 71.5789L216.356 72.2983L215.781 72.4853C215.719 72.5127 215.654 72.5297 215.587 72.5357C215.587 72.5357 215.644 72.5357 215.766 72.4494L216.328 72.2263L218.486 71.4134L226.464 68.4782L238.32 64.1618L245.32 61.6295L249.025 60.2914C250.297 59.8856 251.495 59.2758 252.571 58.4857C253.085 58.0753 253.515 57.5697 253.837 56.9965C254.142 56.4237 254.326 55.7944 254.377 55.1476C254.443 53.8579 254.267 52.5671 253.859 51.342C253.082 48.896 252.262 46.5292 251.521 44.2774C250.025 39.7811 248.643 35.7237 247.55 32.3137C246.456 28.9037 245.535 26.1628 244.902 24.2348C244.6 23.2923 244.37 22.5585 244.183 22.0262L244.01 21.4507C243.989 21.4071 243.972 21.3612 243.96 21.314Z" fill="#263238"/>
<path d="M223.701 11.3934C223.701 11.3934 223.32 11.2063 222.615 10.9186C221.61 10.5325 220.547 10.3184 219.471 10.2855C217.876 10.2308 216.289 10.5306 214.824 11.1632C213.042 11.9509 211.519 13.225 210.428 14.8393C209.331 16.449 208.742 18.3513 208.738 20.2996C208.753 21.8965 208.995 23.4831 209.457 25.0117C209.831 26.3211 210.22 27.3642 210.479 28.0908C210.632 28.4599 210.757 28.8398 210.853 29.2275C210.649 28.8824 210.477 28.5187 210.342 28.1412C210.047 27.4218 209.623 26.4002 209.205 25.0837C208.693 23.539 208.414 21.9266 208.378 20.2996C208.359 18.2777 208.962 16.2987 210.105 14.6307C211.233 12.9575 212.819 11.6439 214.673 10.8466C216.184 10.2106 217.821 9.92998 219.457 10.0265C220.556 10.0825 221.636 10.3385 222.644 10.7819C222.913 10.9062 223.173 11.0505 223.421 11.2135C223.523 11.2585 223.618 11.3192 223.701 11.3934Z" fill="#263238"/>
<path d="M224.032 39.5437C224.147 39.4742 224.268 39.414 224.392 39.3639C224.752 39.2014 225.125 39.0691 225.507 38.9682C226.114 38.7893 226.739 38.683 227.37 38.6517C228.229 38.6055 229.089 38.7353 229.896 39.033C231.737 39.6804 233.428 41.5581 234.262 44.0688C234.663 45.4162 234.663 46.8508 234.262 48.1982C233.819 49.6606 233.023 50.9919 231.946 52.0758L231.989 51.8816C232.946 54.5074 233.989 57.3562 235.068 60.3274L235.133 60.5072L234.953 60.572L233.306 61.1187L229.709 62.3201L229.529 62.3777L229.471 62.1978C228.485 59.2195 227.406 56.4426 226.593 53.716L226.752 53.8383C225.345 53.7215 224.004 53.1936 222.896 52.3204C221.893 51.5479 221.07 50.5658 220.486 49.4428C219.958 48.4468 219.696 47.3321 219.723 46.2054C219.756 45.054 220.044 43.9242 220.565 42.8968C221.086 41.8695 221.828 40.9702 222.737 40.2632C223.112 39.9593 223.532 39.7165 223.982 39.5437C223.576 39.7849 223.182 40.0466 222.802 40.3279C221.803 41.1731 221.038 42.2605 220.579 43.4861C220.186 44.4103 220.002 45.4101 220.04 46.4139C220.079 47.4177 220.339 48.4004 220.802 49.2917C221.377 50.3721 222.18 51.3147 223.155 52.0542C224.212 52.8842 225.491 53.3846 226.831 53.493H226.953L226.989 53.6009C227.78 56.2771 228.867 59.0756 229.867 62.0684L229.629 61.9533L233.226 60.7518L234.867 60.1979L234.752 60.4425C233.68 57.4713 232.644 54.6153 231.694 51.9895V51.8816L231.78 51.7952C232.826 50.7563 233.606 49.4805 234.054 48.0759C234.435 46.787 234.435 45.4152 234.054 44.1264C233.27 41.7092 231.651 39.8747 229.896 39.2272C229.119 38.9276 228.289 38.7881 227.457 38.8171C226.835 38.8314 226.218 38.9158 225.615 39.0689C224.543 39.3351 224.04 39.5797 224.032 39.5437Z" fill="#263238"/>
<path d="M35.4897 94.1681H35.1516L34.1732 94.2401C33.6437 94.2719 33.1172 94.3416 32.5977 94.4487C32.2612 94.496 31.9274 94.5608 31.5977 94.643L30.4826 94.9523C28.5847 95.5346 26.794 96.4214 25.1806 97.5781C23.0489 99.1254 21.2689 101.106 19.9577 103.391C19.1871 104.708 18.5738 106.111 18.1304 107.571C17.6646 109.157 17.3964 110.796 17.3319 112.448C17.289 113.316 17.3034 114.186 17.3751 115.053C17.3751 115.491 17.4974 115.93 17.5549 116.376C17.6033 116.826 17.6875 117.271 17.8067 117.707C18.4536 120.594 19.7662 123.29 21.6398 125.579C23.5134 127.869 25.8961 129.689 28.5978 130.894C30.5532 131.738 32.6491 132.208 34.7775 132.282C36.9758 132.403 39.1763 132.088 41.2522 131.354L41.8852 131.117H41.9716L42.0435 131.16L51.1152 135.764L50.849 135.994C49.8778 132.987 48.9426 130.074 48.0362 127.275V127.167L48.1153 127.088C50.316 124.872 51.9496 122.157 52.8778 119.175C53.7184 116.448 53.9637 113.573 53.5972 110.743C53.2711 108.229 52.4626 105.801 51.2159 103.592C50.1413 101.696 48.7551 99.9931 47.1153 98.5565C45.7625 97.4194 44.2651 96.4663 42.6622 95.7221C41.4494 95.199 40.1862 94.8012 38.8925 94.535L37.4537 94.2976L36.4106 94.2185L35.7775 94.1753H35.5617C35.6334 94.1674 35.7058 94.1674 35.7775 94.1753H36.4177L37.4609 94.2185L38.8997 94.4271C40.2095 94.6738 41.4899 95.0572 42.7197 95.571C44.3502 96.3064 45.8745 97.2573 47.252 98.3983C48.9219 99.8285 50.3376 101.531 51.4389 103.434C52.721 105.666 53.5543 108.127 53.8921 110.679C54.2891 113.552 54.0609 116.477 53.2231 119.254C52.2889 122.298 50.63 125.071 48.3887 127.333L48.4318 127.146C49.3383 129.944 50.2807 132.858 51.2591 135.858L51.3958 136.297L50.9857 136.088L41.914 131.491H42.0723L41.4248 131.728C39.309 132.473 37.0678 132.795 34.8279 132.678C32.6536 132.595 30.5139 132.107 28.5187 131.239C24.7128 129.609 21.5463 126.776 19.5045 123.175C18.5649 121.511 17.8787 119.717 17.4686 117.851C17.3563 117.403 17.2722 116.949 17.2168 116.491C17.1592 116.038 17.0657 115.592 17.0441 115.146C16.8494 112.586 17.12 110.012 17.8427 107.549C18.297 106.069 18.9274 104.649 19.7203 103.319C21.0628 101.014 22.8799 99.0201 25.0511 97.4702C26.6911 96.3105 28.5119 95.4305 30.4395 94.866L31.5689 94.5782C31.9014 94.5011 32.2375 94.4411 32.5761 94.3984C33.101 94.3012 33.6325 94.2434 34.166 94.2257L35.1516 94.1897C35.2637 94.1746 35.3766 94.1674 35.4897 94.1681Z" fill="#4CAF4F"/>
<path d="M34.8064 112.442C35.7934 110.686 37.6904 109.651 38.7927 108.097C39.9591 106.467 39.3054 103.423 35.9984 103.423C33.8323 103.423 32.7684 105.04 32.3198 106.379L29 105.002C29.9101 102.312 32.3839 100 35.9856 100C38.9978 100 41.0614 101.352 42.1125 103.044C43.0097 104.497 43.5352 107.213 42.1509 109.234C40.6128 111.469 39.1388 112.152 38.3441 113.592C38.0236 114.173 37.8955 114.552 37.8955 116.421H34.1912C34.1783 115.436 34.0245 113.832 34.8064 112.442ZM38.562 121.474C38.562 122.863 37.4084 124 35.9984 124C34.5885 124 33.4349 122.863 33.4349 121.474C33.4349 120.084 34.5885 118.947 35.9984 118.947C37.4084 118.947 38.562 120.084 38.562 121.474Z" fill="#4CAF4F"/>
<path d="M201.793 247.261L129.931 246.93C125.781 246.907 121.81 245.238 118.89 242.289C115.97 239.341 114.339 235.354 114.356 231.204L115.119 51.057C115.127 49.001 115.541 46.9668 116.336 45.0707C117.131 43.1746 118.292 41.4538 119.753 40.0067C121.213 38.5595 122.944 37.4144 124.848 36.6368C126.751 35.8592 128.789 35.4643 130.845 35.4747L202.699 35.8056C206.849 35.8266 210.821 37.4937 213.743 40.441C216.665 43.3883 218.297 47.3747 218.282 51.5246L217.519 231.664C217.511 233.721 217.097 235.756 216.302 237.652C215.507 239.549 214.346 241.271 212.886 242.719C211.426 244.168 209.695 245.314 207.791 246.093C205.888 246.873 203.85 247.269 201.793 247.261Z" fill="#455A64"/>
<path d="M202.807 41.9997H188.879C188.425 42.0081 187.977 42.106 187.56 42.2877C187.143 42.4694 186.767 42.7314 186.451 43.0588C186.136 43.3861 185.888 43.7724 185.722 44.1955C185.556 44.6186 185.475 45.0703 185.484 45.5248V48.0499C185.492 48.504 185.411 48.9553 185.245 49.378C185.079 49.8007 184.831 50.1865 184.516 50.5133C184.2 50.8401 183.824 51.1014 183.407 51.2823C182.991 51.4633 182.542 51.5603 182.088 51.5678L154.938 51.4455C154.019 51.421 153.148 51.033 152.516 50.3666C151.883 49.7003 151.541 48.8101 151.564 47.8916V45.3665C151.587 44.4492 151.246 43.5601 150.615 42.894C149.984 42.2278 149.114 41.839 148.197 41.8126H143.298L131.104 41.7551C128.204 41.7378 125.415 42.8705 123.348 44.9052C121.281 46.9398 120.104 49.7106 120.075 52.6109L119.356 228.448C119.349 229.887 119.626 231.313 120.171 232.645C120.715 233.977 121.517 235.188 122.53 236.21C123.542 237.233 124.746 238.045 126.073 238.602C127.4 239.159 128.823 239.449 130.262 239.455L201.973 239.786C203.412 239.793 204.839 239.516 206.172 238.971C207.505 238.426 208.717 237.624 209.74 236.61C210.763 235.597 211.576 234.392 212.133 233.064C212.69 231.737 212.98 230.312 212.987 228.873L213.706 53.0354C213.723 50.1269 212.585 47.3306 210.541 45.2612C208.498 43.1918 205.716 42.0187 202.807 41.9997Z" fill="white"/>
<path d="M153.35 114.45C153.256 115.719 152.792 116.933 152.015 117.941C151.238 118.95 150.181 119.708 148.977 120.121C147.772 120.535 146.473 120.586 145.239 120.269C144.006 119.952 142.893 119.28 142.038 118.336C141.183 117.392 140.625 116.219 140.431 114.961C140.238 113.703 140.419 112.416 140.951 111.26C141.483 110.104 142.343 109.129 143.424 108.456C144.505 107.784 145.76 107.443 147.034 107.477C148.793 107.575 150.443 108.362 151.625 109.667C152.808 110.973 153.427 112.691 153.35 114.45Z" fill="#4CAF4F"/>
<path d="M153.35 136.45C153.256 137.719 152.792 138.933 152.015 139.941C151.238 140.95 150.181 141.708 148.977 142.121C147.772 142.535 146.473 142.586 145.239 142.269C144.006 141.952 142.893 141.28 142.038 140.336C141.183 139.392 140.625 138.219 140.431 136.961C140.238 135.703 140.419 134.416 140.951 133.26C141.483 132.104 142.343 131.129 143.424 130.456C144.505 129.784 145.76 129.443 147.034 129.477C148.793 129.575 150.443 130.362 151.625 131.667C152.808 132.973 153.427 134.691 153.35 136.45Z" fill="#4CAF4F"/>
<path d="M174.35 136.45C174.256 137.719 173.792 138.933 173.015 139.941C172.238 140.95 171.181 141.708 169.977 142.121C168.772 142.535 167.473 142.586 166.239 142.269C165.006 141.952 163.893 141.28 163.038 140.336C162.183 139.392 161.625 138.219 161.431 136.961C161.238 135.703 161.419 134.416 161.951 133.26C162.483 132.104 163.343 131.129 164.424 130.456C165.505 129.784 166.76 129.443 168.034 129.477C169.793 129.575 171.443 130.362 172.625 131.667C173.808 132.973 174.427 134.691 174.35 136.45Z" fill="#4CAF4F"/>
<path d="M195.35 136.45C195.256 137.719 194.792 138.933 194.015 139.941C193.238 140.95 192.181 141.708 190.977 142.121C189.772 142.535 188.473 142.586 187.239 142.269C186.006 141.952 184.893 141.28 184.038 140.336C183.183 139.392 182.625 138.219 182.431 136.961C182.238 135.703 182.419 134.416 182.951 133.26C183.483 132.104 184.343 131.129 185.424 130.456C186.505 129.784 187.76 129.443 189.034 129.477C190.793 129.575 192.443 130.362 193.625 131.667C194.808 132.973 195.427 134.691 195.35 136.45Z" fill="#4CAF4F"/>
<path d="M153.35 158.45C153.256 159.719 152.792 160.933 152.015 161.941C151.238 162.95 150.181 163.708 148.977 164.121C147.772 164.535 146.473 164.586 145.239 164.269C144.006 163.952 142.893 163.28 142.038 162.336C141.183 161.392 140.625 160.219 140.431 158.961C140.238 157.703 140.419 156.416 140.951 155.26C141.483 154.104 142.343 153.129 143.424 152.456C144.505 151.784 145.76 151.443 147.034 151.477C148.793 151.575 150.443 152.362 151.625 153.667C152.808 154.973 153.427 156.691 153.35 158.45Z" fill="#4CAF4F"/>
<path d="M174.35 158.45C174.256 159.719 173.792 160.933 173.015 161.941C172.238 162.95 171.181 163.708 169.977 164.121C168.772 164.535 167.473 164.586 166.239 164.269C165.006 163.952 163.893 163.28 163.038 162.336C162.183 161.392 161.625 160.219 161.431 158.961C161.238 157.703 161.419 156.416 161.951 155.26C162.483 154.104 163.343 153.129 164.424 152.456C165.505 151.784 166.76 151.443 168.034 151.477C169.793 151.575 171.443 152.362 172.625 153.667C173.808 154.973 174.427 156.691 174.35 158.45Z" fill="#4CAF4F"/>
<path d="M174.35 180.45C174.256 181.719 173.792 182.933 173.015 183.941C172.238 184.95 171.181 185.708 169.977 186.121C168.772 186.535 167.473 186.586 166.239 186.269C165.006 185.952 163.893 185.28 163.038 184.336C162.183 183.392 161.625 182.219 161.431 180.961C161.238 179.703 161.419 178.416 161.951 177.26C162.483 176.104 163.343 175.129 164.424 174.456C165.505 173.784 166.76 173.443 168.034 173.477C169.793 173.575 171.443 174.362 172.625 175.667C173.808 176.973 174.427 178.691 174.35 180.45Z" fill="#4CAF4F"/>
<path d="M195.35 158.45C195.256 159.719 194.792 160.933 194.015 161.941C193.238 162.95 192.181 163.708 190.977 164.121C189.772 164.535 188.473 164.586 187.239 164.269C186.006 163.952 184.893 163.28 184.038 162.336C183.183 161.392 182.625 160.219 182.431 158.961C182.238 157.703 182.419 156.416 182.951 155.26C183.483 154.104 184.343 153.129 185.424 152.456C186.505 151.784 187.76 151.443 189.034 151.477C190.793 151.575 192.443 152.362 193.625 153.667C194.808 154.973 195.427 156.691 195.35 158.45Z" fill="#4CAF4F"/>
<path d="M174.35 114.45C174.256 115.719 173.792 116.933 173.015 117.941C172.238 118.95 171.181 119.708 169.977 120.121C168.772 120.535 167.473 120.586 166.239 120.269C165.006 119.952 163.893 119.28 163.038 118.336C162.183 117.392 161.625 116.219 161.431 114.961C161.238 113.703 161.419 112.416 161.951 111.26C162.483 110.104 163.343 109.129 164.424 108.456C165.505 107.784 166.76 107.443 168.034 107.477C169.793 107.575 171.443 108.362 172.625 109.667C173.808 110.973 174.427 112.691 174.35 114.45Z" fill="#4CAF4F"/>
<path d="M195.35 114.45C195.256 115.719 194.792 116.933 194.015 117.941C193.238 118.95 192.181 119.708 190.977 120.121C189.772 120.535 188.473 120.586 187.239 120.269C186.006 119.952 184.893 119.28 184.038 118.336C183.183 117.392 182.625 116.219 182.431 114.961C182.238 113.703 182.419 112.416 182.951 111.26C183.483 110.104 184.343 109.129 185.424 108.456C186.505 107.784 187.76 107.443 189.034 107.477C190.793 107.575 192.443 108.362 193.625 109.667C194.808 110.973 195.427 112.691 195.35 114.45Z" fill="#4CAF4F"/>
<rect x="157.356" y="209.474" width="17" height="17" rx="8.5" fill="#4CAF4F"/>
<path d="M171.35 221.156C171.324 220.993 171.222 220.855 171.07 220.772L168.817 219.445L168.798 219.434C168.704 219.387 168.6 219.363 168.494 219.364C168.305 219.364 168.125 219.435 168 219.561L167.335 220.226C167.307 220.253 167.214 220.292 167.186 220.293C167.178 220.293 166.412 220.238 165.002 218.827C163.595 217.419 163.535 216.651 163.534 216.651C163.535 216.612 163.574 216.519 163.601 216.491L164.168 215.924C164.368 215.723 164.428 215.391 164.31 215.134L163.057 212.778C162.966 212.59 162.79 212.474 162.594 212.474C162.455 212.474 162.321 212.532 162.216 212.637L160.671 214.179C160.523 214.326 160.395 214.584 160.367 214.792C160.354 214.891 160.079 217.259 163.324 220.505C166.079 223.26 168.227 223.474 168.821 223.474C168.893 223.475 168.965 223.472 169.037 223.463C169.244 223.436 169.501 223.308 169.648 223.161L171.193 221.616C171.319 221.489 171.376 221.322 171.35 221.156Z" fill="#F5F7FA"/>
<path d="M169.815 64.2651C170.315 64.0451 170.739 63.6829 171.035 63.2237C171.33 62.7645 171.484 62.2285 171.477 61.6825C171.496 61.3275 171.442 60.9725 171.319 60.639C171.196 60.3056 171.006 60.0006 170.762 59.7428C170.517 59.4849 170.222 59.2796 169.896 59.1393C169.569 58.999 169.218 58.9266 168.862 58.9266C168.507 58.9266 168.155 58.999 167.828 59.1393C167.502 59.2796 167.207 59.4849 166.963 59.7428C166.718 60.0006 166.528 60.3056 166.405 60.639C166.282 60.9725 166.228 61.3275 166.247 61.6825C166.236 62.234 166.389 62.7763 166.686 63.2411C166.983 63.7059 167.411 64.0723 167.916 64.2939C163.887 64.8982 164.067 69.2722 164.067 69.2722L173.592 69.3154C173.592 69.3154 173.815 64.8623 169.815 64.2651Z" fill="#4CAF4F"/>
<path opacity="0.1" d="M169.815 64.2651C170.315 64.0451 170.739 63.6829 171.035 63.2237C171.33 62.7645 171.484 62.2285 171.477 61.6825C171.496 61.3275 171.442 60.9725 171.319 60.639C171.196 60.3056 171.006 60.0006 170.762 59.7428C170.517 59.4849 170.222 59.2796 169.896 59.1393C169.569 58.999 169.218 58.9266 168.862 58.9266C168.507 58.9266 168.155 58.999 167.828 59.1393C167.502 59.2796 167.207 59.4849 166.963 59.7428C166.718 60.0006 166.528 60.3056 166.405 60.639C166.282 60.9725 166.228 61.3275 166.247 61.6825C166.236 62.234 166.389 62.7763 166.686 63.2411C166.983 63.7059 167.411 64.0723 167.916 64.2939C163.887 64.8982 164.067 69.2722 164.067 69.2722L173.592 69.3154C173.592 69.3154 173.815 64.8623 169.815 64.2651Z" fill="black"/>
<path d="M183.293 76.1275L153.344 75.9916C152.24 75.9866 151.34 76.878 151.335 77.9825L151.32 81.4608C151.315 82.5653 152.206 83.4648 153.311 83.4698L183.259 83.6057C184.364 83.6107 185.263 82.7194 185.268 81.6148L185.284 78.1366C185.289 77.032 184.397 76.1325 183.293 76.1275Z" fill="#4CAF4F" fill-opacity="0.7"/>
<path opacity="0.2" d="M183.293 76.1275L153.344 75.9916C152.24 75.9866 151.34 76.878 151.335 77.9825L151.319 81.6476C151.314 82.7522 152.205 83.6517 153.31 83.6567L183.258 83.7926C184.363 83.7976 185.262 82.9062 185.267 81.8017L185.284 78.1366C185.289 77.032 184.397 76.1325 183.293 76.1275Z" fill="white"/>
<rect x="132.606" y="100.724" width="70.5" height="92.5" rx="1.75" stroke="#D9D9D9" stroke-width="0.5"/>
<path d="M74.5103 298.357V292.206L63.4818 292.127L63.3883 301.429L64.0717 301.479C67.1148 301.674 79.5534 301.961 81.5965 301.328C83.8698 300.623 74.5103 298.357 74.5103 298.357Z" fill="#4CAF4F"/>
<path d="M81.8555 300.753C81.8555 300.854 77.7261 300.94 72.6399 300.94C67.5537 300.94 63.4243 300.854 63.4243 300.753C63.4243 300.652 67.5537 300.566 72.6399 300.566C77.7261 300.566 81.8555 300.652 81.8555 300.753Z" fill="#263238"/>
<path d="M74.7045 299.616C74.611 299.566 74.7045 299.242 74.9275 298.897C75.1505 298.552 75.4527 298.408 75.5246 298.48C75.5965 298.552 75.4455 298.825 75.2296 299.12C75.0138 299.415 74.798 299.667 74.7045 299.616Z" fill="#263238"/>
<path d="M75.4096 300.019C75.3089 300.019 75.3592 299.616 75.575 299.235C75.7909 298.854 76.0786 298.623 76.1578 298.681C76.2369 298.738 76.1074 299.062 75.906 299.4C75.7045 299.738 75.5031 300.055 75.4096 300.019Z" fill="#263238"/>
<path d="M66.7479 300.724C66.7048 300.724 66.5393 300.595 66.3019 300.321C66.0121 299.97 65.6893 299.647 65.3379 299.357C64.9924 299.081 64.5807 298.9 64.1437 298.832C63.8056 298.789 63.5898 298.832 63.5682 298.789C63.5466 298.746 63.7552 298.595 64.1509 298.566C64.6731 298.555 65.1825 298.728 65.5897 299.055C65.9713 299.366 66.293 299.744 66.5393 300.17C66.7048 300.487 66.7911 300.695 66.7479 300.724Z" fill="#263238"/>
<path d="M74.7405 298.458C74.7909 298.544 74.6039 298.76 74.2873 298.875C73.9708 298.99 73.6902 298.947 73.6758 298.875C73.6614 298.803 73.8845 298.652 74.1578 298.552C74.4312 298.451 74.683 298.372 74.7405 298.458Z" fill="#263238"/>
<path d="M74.5679 297.861C74.5679 297.969 74.2801 298.055 73.906 298.062C73.5319 298.069 73.237 297.983 73.2441 297.882C73.2513 297.782 73.5463 297.688 73.906 297.681C74.2657 297.674 74.5535 297.76 74.5679 297.861Z" fill="#263238"/>
<path d="M101.668 298.357V292.206L90.6394 292.127L90.5459 301.336L91.2293 301.386C94.2724 301.58 106.718 301.961 108.754 301.328C111.027 300.623 101.668 298.357 101.668 298.357Z" fill="#4CAF4F"/>
<path d="M109.013 300.767C109.013 300.868 104.891 300.954 99.7974 300.954C94.704 300.954 90.589 300.868 90.589 300.767C90.589 300.667 94.7112 300.58 99.7974 300.58C104.884 300.58 109.013 300.667 109.013 300.767Z" fill="#263238"/>
<path d="M101.862 299.616C101.776 299.566 101.862 299.242 102.085 298.897C102.308 298.552 102.61 298.408 102.682 298.48C102.754 298.552 102.603 298.825 102.387 299.12C102.172 299.415 101.956 299.667 101.862 299.616Z" fill="#263238"/>
<path d="M102.567 300.019C102.474 300.019 102.517 299.616 102.74 299.235C102.963 298.854 103.243 298.623 103.323 298.681C103.402 298.738 103.265 299.062 103.064 299.4C102.862 299.738 102.668 300.055 102.567 300.019Z" fill="#263238"/>
<path d="M93.9055 300.724C93.8624 300.724 93.7041 300.595 93.4595 300.321C93.1697 299.97 92.8469 299.647 92.4955 299.357C92.15 299.081 91.7383 298.9 91.3013 298.832C90.9704 298.789 90.7473 298.832 90.7258 298.789C90.7042 298.746 90.9128 298.595 91.3085 298.566C91.8307 298.555 92.3401 298.728 92.7473 299.055C93.1308 299.364 93.4529 299.742 93.6969 300.17C93.8624 300.487 93.9487 300.695 93.9055 300.724Z" fill="#263238"/>
<path d="M101.898 298.458C101.948 298.544 101.761 298.76 101.445 298.875C101.128 298.99 100.848 298.947 100.833 298.875C100.819 298.803 101.042 298.652 101.315 298.552C101.589 298.451 101.841 298.372 101.898 298.458Z" fill="#263238"/>
<path d="M101.74 297.861C101.74 297.969 101.452 298.055 101.078 298.062C100.704 298.069 100.416 297.983 100.423 297.882C100.431 297.782 100.718 297.688 101.078 297.681C101.438 297.674 101.74 297.76 101.74 297.861Z" fill="#263238"/>
<path d="M142.3 115.7C142.012 115.405 141.3 115.549 141.3 115.549C141.371 115.135 141.371 114.711 141.3 114.297C141.17 113.894 140.264 113.973 140.264 113.973C140.222 113.634 140.222 113.291 140.264 112.952C140.271 112.877 140.255 112.801 140.218 112.735C140.18 112.67 140.124 112.617 140.055 112.585C139.627 112.41 139.166 112.327 138.703 112.34C138.149 111.945 140.394 108.801 141.228 107.794C142.063 106.787 141.911 106.002 141.17 106.002C140.66 106.002 138.041 109.024 137.235 110.038C136.43 111.053 134.293 113.873 134.221 111.621C134.149 109.369 133.243 107.671 132.674 107.384C132.106 107.096 131.502 107.772 131.811 108.398C132.083 109.109 132.252 109.855 132.315 110.614C132.393 111.218 132.366 111.831 132.235 112.427C131.997 113.534 131.672 114.622 131.264 115.678H131.207C131.207 115.678 115.509 130.736 114.373 131.808C113.358 132.772 92.9559 130.664 88.8625 130.232C87.4715 130.028 86.0669 129.932 84.6611 129.944C82.8842 130.023 82.5676 130.275 80.7979 130.297C76.3286 130.346 71.8696 130.738 67.4601 131.469C65.4635 131.809 63.5985 132.69 62.0685 134.017C60.5385 135.344 59.4024 137.066 58.7841 138.994C54.6619 151.872 45.324 182.353 43.6765 199.475C42.4317 201.732 41.3078 204.055 40.3097 206.432C39.1515 209.583 39.4321 209.69 39.8205 209.762C40.8709 209.957 42.0651 204.302 42.5111 205.669C42.9571 207.036 40.245 212.41 41.3457 212.568C42.7845 212.77 43.9283 206.813 44.065 206.338C44.2017 205.863 44.9139 206.014 44.7844 206.46C44.5758 207.093 42.5543 213.805 43.9643 214.021C44.7413 214.136 44.8276 212.719 44.8276 212.719C44.8276 212.719 46.2664 206.295 46.9211 206.424C47.5757 206.554 46.8779 210.345 46.547 211.611C46.2161 212.877 46.6765 213.518 47.3527 213.208C47.8131 212.993 48.9138 209.144 49.216 207.892C49.5181 206.64 50.2735 203.173 51.2879 205.18C52.3022 207.187 53.8418 208.352 54.4748 208.381C54.6175 208.365 54.752 208.306 54.8609 208.212C54.9699 208.119 55.0484 207.995 55.0863 207.856C55.1242 207.718 55.1198 207.571 55.0737 207.435C55.0275 207.299 54.9417 207.18 54.8273 207.093C54.2828 206.562 53.8155 205.956 53.4389 205.295C53.1033 204.78 52.8599 204.21 52.7195 203.611C52.4296 202.418 52.2609 201.199 52.2159 199.971L52.1008 199.252C53.7123 191.274 58.3524 167.857 65.0501 152.901L67.7982 158.555L68.9925 162.742L61.6689 180.821L92.9055 180.411L88.2438 162.469L93.9055 143.764C100.028 143.901 115.747 144.131 118.365 142.944C121.66 141.505 138.703 119.98 138.703 119.98C139.814 119.117 140.878 118.195 141.89 117.218C141.89 117.218 142.926 116.347 142.3 115.7Z" fill="#FFBE9D"/>
<path d="M60.2949 167.461C61.2013 164.368 65.8559 149.073 65.8559 149.073C65.8559 149.073 68.1436 161.541 67.5393 163.044C66.9834 164.331 66.3267 165.573 65.5753 166.756C60.2949 174.792 60.9855 178.814 60.9855 178.814L92.8912 177.842C92.9631 173.382 90.3229 163.008 89.7761 161.354C89.2294 159.699 91.0495 154.282 91.0495 154.282C91.0495 154.282 94.6465 150.62 94.517 148.735C94.4487 147.042 94.2393 145.358 93.8911 143.699L113.315 144.419L112.704 131.254L84.805 128.462C83.8338 131.203 75.0499 129.858 75.0499 129.858C65.5681 130.174 64.9782 131.915 61.0358 134.98C57.0935 138.045 50.5685 164.346 50.5685 164.346L60.2949 167.461Z" fill="#4CAF4F"/>
<path d="M79.1576 164.346C78.6047 164.445 78.0416 164.474 77.4814 164.433C76.4383 164.433 75.0066 164.361 73.4311 164.202C71.8556 164.044 70.4312 163.821 69.4169 163.62C68.8576 163.548 68.3091 163.408 67.7838 163.203C68.3463 163.203 68.9075 163.256 69.46 163.361C70.4816 163.49 71.8988 163.67 73.4671 163.828C75.0354 163.987 76.4598 164.095 77.4886 164.167C78.0494 164.174 78.6082 164.234 79.1576 164.346Z" fill="#263238"/>
<path d="M81.3446 161.634C80.7915 161.905 80.2066 162.106 79.6036 162.231C76.7335 162.985 73.7723 163.337 70.8053 163.274C70.1914 163.294 69.5774 163.236 68.978 163.102C69.584 163.025 70.1947 162.994 70.8053 163.008C71.9348 162.972 73.4887 162.893 75.2009 162.692C76.9131 162.49 78.4382 162.202 79.5173 161.972C80.1167 161.812 80.7276 161.699 81.3446 161.634Z" fill="#263238"/>
<path d="M92.0782 149.534C92.0636 150.082 91.9888 150.627 91.8552 151.16C91.6681 152.16 91.3804 153.526 91.0135 155.023C90.6466 156.519 90.2941 157.9 89.9775 158.836C89.8502 159.371 89.662 159.89 89.4164 160.382C89.4565 159.836 89.5578 159.295 89.7185 158.771C89.9919 157.649 90.3013 156.354 90.6466 154.936C90.9919 153.519 91.3228 152.224 91.5962 151.102C91.6936 150.562 91.8554 150.035 92.0782 149.534Z" fill="#263238"/>
<path d="M60.633 165.627C58.9687 165.37 57.3261 164.988 55.7194 164.483C54.0777 164.099 52.4666 163.594 50.8994 162.972C52.5629 163.233 54.2051 163.616 55.813 164.116C57.4551 164.499 59.0663 165.004 60.633 165.627Z" fill="#263238"/>
<path d="M94.2365 143.541C93.9651 143.588 93.6877 143.588 93.4164 143.541C92.6649 143.464 91.9271 143.287 91.2222 143.016C90.0453 142.574 88.974 141.89 88.077 141.009C87.18 140.128 86.4772 139.07 86.0137 137.901C85.5014 136.615 85.2826 135.232 85.3734 133.851C85.4055 132.712 85.7461 131.603 86.359 130.642C86.7901 129.995 87.434 129.519 88.1791 129.297C88.3782 129.242 88.584 129.215 88.7906 129.218C88.9345 129.218 89.0064 129.218 89.0064 129.218C89.0064 129.218 88.7043 129.218 88.2223 129.412C87.5387 129.664 86.9589 130.138 86.5748 130.757C85.5964 132.297 85.323 135.11 86.3662 137.735C86.8517 138.974 87.6117 140.085 88.5892 140.987C89.39 141.725 90.3125 142.319 91.3157 142.743C92.2572 143.115 93.2366 143.382 94.2365 143.541Z" fill="#263238"/>
<path d="M111.006 144.16C110.826 141.954 110.768 139.739 110.833 137.527C110.777 135.316 110.844 133.104 111.035 130.901C111.215 133.105 111.272 135.317 111.207 137.527C111.268 139.74 111.201 141.955 111.006 144.16Z" fill="#263238"/>
<path d="M84.618 129.268C84.6971 127.664 84.8625 125.851 84.8625 125.851C84.8625 125.851 88.8337 125.412 89.0711 121.311C89.3085 117.211 89.0711 107.751 89.0711 107.751L81.877 104.067L73.8916 110.348L75.1218 130.851L82.4453 131.318C83.0051 131.334 83.5482 131.127 83.9555 130.742C84.3628 130.358 84.601 129.828 84.618 129.268Z" fill="#FFBE9D"/>
<path d="M85.3302 118.067C85.3302 118.067 85.3302 118.146 85.2654 118.24C85.2119 118.307 85.1426 118.361 85.0637 118.396C84.9847 118.431 84.8984 118.447 84.8122 118.441C84.3518 118.441 83.9057 117.909 83.7475 117.29C83.6722 116.99 83.6722 116.676 83.7475 116.376C83.7622 116.245 83.8094 116.12 83.8848 116.012C83.9602 115.904 84.0613 115.817 84.1791 115.758C84.2758 115.718 84.3845 115.718 84.4812 115.758C84.553 115.793 84.6111 115.851 84.6467 115.923C84.6971 116.045 84.6467 116.125 84.6467 116.117C84.6467 116.11 84.6467 116.045 84.5748 115.973C84.5372 115.922 84.4819 115.886 84.4195 115.873C84.3571 115.86 84.292 115.87 84.2366 115.902C84.1484 115.955 84.0751 116.03 84.0235 116.119C83.9719 116.208 83.9438 116.309 83.9417 116.412C83.8811 116.68 83.8811 116.958 83.9417 117.225C84.0856 117.786 84.4741 118.24 84.8194 118.283C84.8869 118.292 84.9557 118.287 85.0213 118.268C85.0868 118.25 85.1479 118.218 85.2007 118.175C85.287 118.117 85.3158 118.06 85.3302 118.067Z" fill="#EB996E"/>
<path d="M91.5387 105.535C90.9848 103.65 88.9776 102.715 87.1503 102.197C84.3662 101.405 81.3591 101.06 78.6398 102.06C75.9204 103.06 72.6543 104.815 72.6543 107.815C71.05 107.686 70.1292 109.089 69.4961 110.83C69.0914 111.89 68.8488 113.006 68.7767 114.139C68.5753 118.067 67.4746 123.491 64.9279 126.369C63.4891 127.973 61.4963 129.081 60.6762 131.081C59.9568 132.815 60.3309 134.872 59.6618 136.628C59.0647 138.174 57.7482 139.275 56.7842 140.62C55.8021 142.146 55.2241 143.897 55.1046 145.708C54.985 147.519 55.3278 149.331 56.1008 150.973C56.8793 152.572 57.9754 153.997 59.3223 155.16C60.6692 156.322 62.2386 157.199 63.9351 157.735C67.2955 158.757 70.8789 158.792 74.2586 157.836C76.795 157.229 79.1611 156.056 81.1793 154.404C83.2442 152.718 84.6625 150.369 85.1936 147.757C85.7043 144.822 84.8842 141.836 84.2727 138.915C82.3591 129.685 82.9058 129.203 85.323 120.635C85.3806 120.484 85.4094 120.326 85.4525 120.175C85.4957 120.024 85.5173 119.952 85.5461 119.837C85.6147 119.498 85.6509 119.153 85.654 118.808C85.3009 118.939 84.9177 118.967 84.5494 118.888C84.1811 118.809 83.843 118.626 83.5749 118.362C83.3061 118.08 83.1188 117.73 83.0326 117.35C82.9465 116.97 82.9648 116.574 83.0857 116.204C83.2554 115.799 83.5084 115.434 83.8281 115.132C84.1478 114.831 84.5272 114.601 84.9418 114.456C85.7403 114.125 86.5964 113.952 87.3806 113.585C89.0424 112.794 90.1934 111.153 90.9776 109.434C91.6223 108.242 91.8212 106.86 91.5387 105.535Z" fill="#263238"/>
<path d="M85.618 118.261C85.77 118.486 85.8955 118.727 85.9921 118.981C86.2079 119.434 86.4957 120.074 86.8122 120.815L86.8697 120.952H86.7187L85.9993 121.016C85.5029 121.016 85.0856 121.11 84.5964 121.103C84.5538 121.093 84.5143 121.073 84.4816 121.044C84.4489 121.015 84.4241 120.978 84.4094 120.937C84.388 120.872 84.388 120.801 84.4094 120.736C84.426 120.639 84.4476 120.543 84.4741 120.448L84.6036 119.937C84.6687 119.597 84.77 119.264 84.9058 118.945C84.8924 119.292 84.8417 119.637 84.7547 119.973L84.654 120.484C84.618 120.657 84.5533 120.923 84.654 120.901C85.0137 120.901 85.5244 120.822 85.9993 120.793L86.7187 120.729L86.6251 120.887C86.3158 120.168 86.0568 119.491 85.9057 119.024C85.7732 118.785 85.6763 118.528 85.618 118.261Z" fill="#4CAF4F"/>
<path d="M60.9855 178.814L92.8911 177.842L106.776 232.042L104.222 294.214H87.3517L89.4164 233.366L77.0786 195.633L78.9778 296.624L61.9279 296.875L60.1366 201.95C60.0574 199.309 59.1942 193.36 59.5179 190.741L60.9855 178.814Z" fill="#263238"/>
<path d="M81.3231 196.403C80.8009 196.436 80.2766 196.404 79.762 196.309C78.798 196.194 77.4815 195.993 76.0355 195.705C74.5895 195.417 73.2946 195.087 72.3593 194.82C71.8594 194.71 71.3758 194.536 70.9205 194.302C70.9205 194.194 73.2658 194.756 76.1434 195.338C79.021 195.921 81.3375 196.295 81.3231 196.403Z" fill="#455A64"/>
<path d="M104.049 290.804C104.049 290.904 100.229 290.991 95.517 290.991C90.8049 290.991 86.9777 290.904 86.9777 290.804C86.9777 290.703 90.7977 290.616 95.517 290.616C100.236 290.616 104.049 290.696 104.049 290.804Z" fill="#455A64"/>
<path d="M78.8267 293.998C78.8267 294.106 75.1146 294.185 70.5392 294.185C65.9637 294.185 62.2588 294.106 62.2588 293.998C62.2588 293.89 65.9709 293.811 70.5392 293.811C75.1074 293.811 78.8267 293.897 78.8267 293.998Z" fill="#455A64"/>
<path d="M76.6253 293.739C76.5246 293.739 76.0786 271.675 75.6254 244.459C75.1721 217.244 74.9059 195.166 74.9995 195.166C75.093 195.166 75.5534 217.223 75.9994 244.452C76.4455 271.682 76.7332 293.739 76.6253 293.739Z" fill="#455A64"/>
<path d="M101.783 290.804C101.775 290.705 101.775 290.607 101.783 290.509V289.645C101.783 288.868 101.841 287.753 101.884 286.336C101.984 283.458 102.128 279.279 102.308 274.157C102.697 263.855 103.243 249.654 103.84 233.978C103.84 233.827 103.84 233.683 103.84 233.553V233.604C100.064 218.496 96.6464 204.784 94.1645 194.864L91.2868 183.13C90.9559 181.756 90.7041 180.684 90.5243 179.936C90.4379 179.583 90.3804 179.31 90.33 179.101C90.302 179.008 90.2851 178.911 90.2797 178.814C90.317 178.904 90.3459 178.998 90.366 179.094C90.4235 179.296 90.4955 179.569 90.5962 179.914C90.7904 180.634 91.071 181.727 91.4307 183.094C92.1501 185.871 93.1645 189.871 94.4306 194.799C96.9342 204.712 100.387 218.388 104.215 233.517V233.568C104.215 233.697 104.215 233.848 104.215 233.992C103.574 249.668 102.992 263.862 102.567 274.164C102.344 279.293 102.157 283.444 102.028 286.336C101.956 287.775 101.898 288.868 101.862 289.645C101.862 290.012 101.819 290.3 101.812 290.509C101.813 290.608 101.803 290.707 101.783 290.804Z" fill="#455A64"/>
<path d="M96.2796 232.287C95.0679 232.685 93.8196 232.963 92.5531 233.114C90.9992 233.38 89.6754 233.568 89.0783 233.596V233.452C89.2726 233.51 89.3733 233.546 89.3733 233.575C89.3733 233.604 89.251 233.575 89.0496 233.575H88.6179L89.0496 233.445C89.6107 233.28 90.9344 233.006 92.4883 232.726C93.7346 232.455 95.0045 232.308 96.2796 232.287Z" fill="#455A64"/>
<path d="M95.9845 234.352C94.8624 234.403 93.7379 234.353 92.6249 234.201C91.5012 234.178 90.3817 234.055 89.2797 233.834C91.5279 233.65 93.7911 233.825 95.9845 234.352Z" fill="#455A64"/>
<path opacity="0.2" d="M60.8488 179.957C61.2266 180.443 61.7026 180.843 62.2455 181.132C62.7885 181.42 63.3862 181.591 63.9997 181.634C65.2847 181.786 66.5845 181.762 67.863 181.562C76.1002 180.648 84.8266 179.806 92.8911 177.842C82.4525 178.425 71.424 178.231 60.9854 178.814L60.8775 179.706" fill="black"/>
<g opacity="0.2">
<path d="M71.6039 194.669L77.4886 217.503L77.0786 195.633L71.6039 194.669Z" fill="black"/>
</g>
</svg>
