<svg width="37" height="37" viewBox="0 0 37 37" fill="none" xmlns="http://www.w3.org/2000/svg">
<path d="M22.4679 28.5H22.4667H22.0952C21.8686 28.5 21.7028 28.4294 21.5637 28.2922C21.4251 28.1553 21.3566 27.9955 21.3571 27.779V27.7778V27.4111C21.3571 27.1503 21.4063 26.9052 21.5041 26.6716C21.6024 26.4367 21.7404 26.2328 21.9197 26.0565L21.9213 26.0549L27.2384 20.7772L29.1793 22.6487L23.8487 27.9108C23.666 28.0913 23.4534 28.2359 23.2075 28.3449C22.9724 28.4491 22.7274 28.5006 22.4679 28.5ZM29.5352 22.2973L29.8952 22.6444L29.5393 22.9958L29.5352 22.2973ZM22.4667 29H22.0952C21.7444 29 21.4502 28.8827 21.2125 28.648C20.9748 28.4133 20.8563 28.1233 20.8571 27.7778L22.4667 29ZM30.7929 21.0863L28.8736 19.1917L29.3798 18.6919C29.533 18.5407 29.7057 18.4694 29.9262 18.4694C30.146 18.4694 30.2994 18.5395 30.4265 18.6763L30.4263 18.6764L30.4354 18.6857L31.2971 19.5667C31.4346 19.7167 31.5 19.8841 31.5 20.0937C31.5 20.3046 31.4344 20.4534 31.3089 20.5769L31.3083 20.5775L30.7929 21.0863ZM6.5 24.1117V24.1111V9.44445C6.5 8.90812 6.68755 8.45997 7.07927 8.07327C7.47116 7.6864 7.92757 7.49935 8.47559 7.5H8.47619H14.8833C15.1501 7.5 15.4007 7.54904 15.6391 7.6463L15.8269 7.18606L15.6391 7.6463C15.8789 7.74409 16.0861 7.88097 16.2648 8.05797L16.2654 8.05861L18.0297 9.80027L18.1757 9.94445H18.381H28.2857C28.835 9.94445 29.292 10.132 29.6839 10.5189C30.0756 10.9056 30.2626 11.3532 30.2619 11.8883V11.8889V14.9787C29.753 15.0089 29.2502 15.0855 28.7537 15.2083C28.0476 15.383 27.4313 15.7279 26.9133 16.2383L26.9119 16.2397L17.0296 26.0555H8.47619C7.92695 26.0555 7.46994 25.8679 7.07803 25.4811C6.68633 25.0944 6.49934 24.6468 6.5 24.1117Z" fill="#70BF72" stroke="#757980"/>
</svg>
