<svg width="35" height="34" viewBox="0 0 35 34" fill="none" xmlns="http://www.w3.org/2000/svg">
<path d="M33.1202 27.0623L33.1203 27.0623C33.2515 26.9713 33.3634 26.8551 33.4493 26.7205L33.7427 26.9078L33.4493 26.7205C33.5353 26.5859 33.5936 26.4356 33.6209 26.2782C33.6482 26.1208 33.644 25.9596 33.6085 25.8039L33.9478 25.7265L33.6085 25.8039C33.573 25.6482 33.5068 25.5011 33.4139 25.3712L33.4124 25.369C32.1053 23.5111 30.3244 22.0372 28.2547 21.1006L27.75 20.8722L28.1748 20.5167C29.4346 19.4622 30.3389 18.0451 30.7644 16.4582C31.1899 14.8714 31.116 13.192 30.5528 11.6487C29.9896 10.1054 28.9644 8.77313 27.6169 7.83333C26.2694 6.89354 24.665 6.39188 23.0221 6.39665L23.0205 6.39666C22.2894 6.39544 21.5617 6.49639 20.8585 6.69658L20.8523 6.69836L20.8523 6.6983C20.6961 6.73964 20.5497 6.81163 20.4216 6.91008C20.2935 7.00854 20.1862 7.13149 20.1061 7.27179C20.026 7.41209 19.9746 7.56692 19.9549 7.72728C19.9351 7.88764 19.9475 8.05031 19.9913 8.20584C20.0351 8.36136 20.1093 8.50663 20.2098 8.63317L19.9372 8.84954L20.2098 8.63318C20.3102 8.75972 20.4348 8.86503 20.5763 8.94295L20.4085 9.24783L20.5763 8.94295C20.7179 9.02088 20.8735 9.06987 21.0341 9.08708C21.1948 9.10429 21.3572 9.08937 21.5121 9.04319L21.5161 9.042L21.5161 9.04202C22.0057 8.90233 22.5126 8.83194 23.0217 8.8329M33.1202 27.0623L23.0211 9.18093M33.1202 27.0623L33.1162 27.0652C32.913 27.2104 32.6694 27.2882 32.4196 27.2874C32.2243 27.2863 32.0321 27.2386 31.8588 27.1484C31.6856 27.0583 31.5363 26.9283 31.4233 26.7691M33.1202 27.0623L31.139 26.9699M23.0217 8.8329L23.0211 9.18093M23.0217 8.8329C23.0215 8.8329 23.0213 8.8329 23.0211 8.8329V9.18093M23.0217 8.8329C24.4984 8.83307 25.9145 9.41974 26.9587 10.4639C28.003 11.5082 28.5896 12.9246 28.5896 14.4015C28.5896 15.8783 28.003 17.2947 26.9587 18.339C25.9143 19.3833 24.498 19.97 23.0211 19.97C22.698 19.97 22.3882 20.0983 22.1597 20.3268C21.9313 20.5552 21.803 20.8651 21.803 21.1881C21.803 21.5112 21.9313 21.821 22.1597 22.0495C22.3882 22.2779 22.698 22.4063 23.0211 22.4063H23.0215C24.6689 22.4081 26.2918 22.8053 27.7539 23.5645C29.2158 24.3237 30.4742 25.4226 31.4233 26.7691M23.0211 9.18093C24.4057 9.18093 25.7335 9.73095 26.7126 10.71C27.6916 11.689 28.2416 13.0169 28.2416 14.4015C28.2416 15.786 27.6916 17.1139 26.7126 18.0929C25.7335 19.072 24.4057 19.622 23.0211 19.622C22.6057 19.622 22.2074 19.787 21.9137 20.0807C21.6199 20.3744 21.4549 20.7728 21.4549 21.1881C21.4549 21.6035 21.6199 22.0019 21.9137 22.2956C22.2074 22.5893 22.6057 22.7543 23.0211 22.7543C24.6128 22.756 26.1809 23.1398 27.5935 23.8734C29.0061 24.6069 30.222 25.6688 31.139 26.9699M31.4233 26.7691C31.4231 26.7689 31.423 26.7687 31.4229 26.7685L31.139 26.9699M31.4233 26.7691C31.4233 26.7692 31.4234 26.7693 31.4235 26.7693L31.139 26.9699M17.5374 20.5172L17.1146 20.8729L17.6179 21.1006C19.6875 22.0372 21.4685 23.5111 22.7756 25.369L22.7806 25.3761L22.7859 25.3829C22.8874 25.513 22.9615 25.6624 23.0036 25.8219C23.0456 25.9815 23.0548 26.148 23.0306 26.3112C23.0064 26.4744 22.9493 26.6311 22.8627 26.7715C22.7761 26.912 22.6619 27.0335 22.5269 27.1285C22.392 27.2235 22.2392 27.2901 22.0777 27.3242C21.9163 27.3584 21.7496 27.3593 21.5877 27.3271C21.4259 27.2949 21.2723 27.2301 21.1362 27.1367C21.0002 27.0433 20.8845 26.9232 20.7963 26.7838L20.7918 26.7767L20.787 26.7699C19.8399 25.4208 18.5818 24.3197 17.1193 23.5595C15.6567 22.7993 14.0326 22.4025 12.3843 22.4025C10.736 22.4025 9.11186 22.7993 7.64929 23.5595C6.18673 24.3197 4.92869 25.4208 3.98153 26.7699L3.98075 26.771C3.86941 26.9309 3.72095 27.0614 3.54811 27.1514C3.37527 27.2413 3.18319 27.288 2.98834 27.2874L2.98621 27.2874C2.73631 27.2883 2.49248 27.2105 2.28918 27.0652L2.28751 27.064C2.02399 26.878 1.84502 26.5951 1.78983 26.2773C1.73466 25.9596 1.80771 25.633 1.99296 25.369C3.30006 23.5111 5.08101 22.0372 7.15063 21.1006L7.65394 20.8729L7.23119 20.5172C5.97476 19.4602 5.07374 18.0425 4.65029 16.4562C4.22683 14.8698 4.30142 13.1916 4.86395 11.6491C5.42648 10.1066 6.44973 8.77439 7.79497 7.83306C9.14022 6.89174 10.7424 6.38685 12.3843 6.38685C14.0262 6.38685 15.6283 6.89174 16.9736 7.83306C18.3188 8.77439 19.3421 10.1066 19.9046 11.6491C20.4671 13.1916 20.5417 14.8698 20.1183 16.4562C19.6948 18.0425 18.7938 19.4602 17.5374 20.5172ZM7.75419 11.3077C7.14231 12.2235 6.81572 13.3001 6.81572 14.4015C6.81572 15.8783 7.40241 17.2947 8.44671 18.339C9.49102 19.3833 10.9074 19.97 12.3843 19.97C13.4856 19.97 14.5623 19.6434 15.478 19.0315C16.3937 18.4197 17.1075 17.55 17.529 16.5324C17.9504 15.5149 18.0607 14.3953 17.8458 13.3151C17.631 12.2349 17.1006 11.2427 16.3218 10.4639C15.5431 9.68511 14.5508 9.15476 13.4706 8.93989C12.3905 8.72503 11.2708 8.83531 10.2533 9.25678C9.23576 9.67825 8.36607 10.392 7.75419 11.3077Z" fill="#4CAF4F" stroke="#4CAF4F" stroke-width="0.696069"/>
</svg>
