<svg width="34" height="35" viewBox="0 0 34 35" fill="none" xmlns="http://www.w3.org/2000/svg">
<g id="Icon" clip-path="url(#clip0_211_2354)">
<path id="Vector" d="M31.9 21.5V13.6875H35V23.0625H31.9M31.9 29.3125H35V26.1875H31.9M16.4 23.0625C20.5385 23.0625 28.8 25.1562 28.8 29.3125V34H4V29.3125C4 25.1562 12.2615 23.0625 16.4 23.0625ZM16.4 9C18.0443 9 19.6213 9.65848 20.7841 10.8306C21.9468 12.0027 22.6 13.5924 22.6 15.25C22.6 16.9076 21.9468 18.4973 20.7841 19.6694C19.6213 20.8415 18.0443 21.5 16.4 21.5C14.7557 21.5 13.1787 20.8415 12.0159 19.6694C10.8532 18.4973 10.2 16.9076 10.2 15.25C10.2 13.5924 10.8532 12.0027 12.0159 10.8306C13.1787 9.65848 14.7557 9 16.4 9ZM16.4 26.0312C11.7965 26.0312 6.945 28.3125 6.945 29.3125V31.0312H25.855V29.3125C25.855 28.3125 21.0035 26.0312 16.4 26.0312ZM16.4 11.9688C15.5367 11.9688 14.7088 12.3145 14.0984 12.9298C13.4879 13.5452 13.145 14.3798 13.145 15.25C13.145 16.1202 13.4879 16.9548 14.0984 17.5702C14.7088 18.1855 15.5367 18.5313 16.4 18.5313C17.2633 18.5313 18.0912 18.1855 18.7016 17.5702C19.3121 16.9548 19.655 16.1202 19.655 15.25C19.655 14.3798 19.3121 13.5452 18.7016 12.9298C18.0912 12.3145 17.2633 11.9688 16.4 11.9688Z" fill="#4CAF4F"/>
</g>
<defs>
<clipPath id="clip0_211_2354">
<rect width="33.4113" height="33.4113" fill="white" transform="translate(0.25354 0.648926)"/>
</clipPath>
</defs>
</svg>
