<svg width="30" height="30" viewBox="0 0 30 30" fill="none" xmlns="http://www.w3.org/2000/svg">
<path d="M12.875 10.7812C12.875 12.9731 11.0981 14.75 8.90625 14.75C6.71437 14.75 4.9375 12.9731 4.9375 10.7812C4.9375 8.58937 6.71437 6.8125 8.90625 6.8125C11.0981 6.8125 12.875 8.58937 12.875 10.7812Z" fill="#70BF72" stroke="#757980" stroke-width="0.5"/>
<path d="M8.90625 16.4219C10.0861 16.4219 11.6651 16.6915 13.1528 17.3548C12.2052 17.8806 11.4172 18.5019 10.8281 19.1706C9.97455 20.1388 9.47656 21.3119 9.47656 22.4959V23.1875H1.1875V20.9766C1.1875 19.5299 2.40173 18.3913 4.05066 17.5985C5.68323 16.8136 7.63846 16.4219 8.90625 16.4219Z" fill="#70BF72" stroke="#757980" stroke-width="0.5"/>
<path d="M11.0312 22.5C11.0312 20.7809 12.4339 19.438 14.318 18.509C16.188 17.587 18.4354 17.125 19.9219 17.125C21.4084 17.125 23.6558 17.587 25.5257 18.509C27.4099 19.438 28.8125 20.7809 28.8125 22.5V25.0625H11.0312V22.5Z" fill="#70BF72" stroke="#757980" stroke-width="0.5"/>
<path d="M24.8281 9.84375C24.8281 12.5534 22.6315 14.75 19.9219 14.75C17.2122 14.75 15.0156 12.5534 15.0156 9.84375C15.0156 7.1341 17.2122 4.9375 19.9219 4.9375C22.6315 4.9375 24.8281 7.1341 24.8281 9.84375Z" fill="#70BF72" stroke="#757980" stroke-width="0.5"/>
</svg>
