<svg width="38" height="37" viewBox="0 0 38 37" fill="none" xmlns="http://www.w3.org/2000/svg">
<g id="tabler:abc">
<path id="Vector" d="M5.52344 24.6666V15.4166C5.52344 14.5988 5.84486 13.8146 6.417 13.2363C6.98914 12.6581 7.76512 12.3333 8.57425 12.3333C9.38337 12.3333 10.1594 12.6581 10.7315 13.2363C11.3036 13.8146 11.6251 14.5988 11.6251 15.4166V24.6666M5.52344 20.0416H11.6251M16.2013 12.3333V21.5833M16.2013 21.5833C16.2013 22.401 16.5227 23.1853 17.0948 23.7635C17.667 24.3417 18.443 24.6666 19.2521 24.6666C20.0612 24.6666 20.8372 24.3417 21.4093 23.7635C21.9815 23.1853 22.3029 22.401 22.3029 21.5833V20.0416C22.3029 19.2238 21.9815 18.4396 21.4093 17.8613C20.8372 17.2831 20.0612 16.9583 19.2521 16.9583C18.443 16.9583 17.667 17.2831 17.0948 17.8613C16.5227 18.4396 16.2013 19.2238 16.2013 20.0416V21.5833ZM32.5719 18.4999C32.2361 17.9121 31.7178 17.4528 31.0973 17.1931C30.4769 16.9333 29.789 16.8878 29.1403 17.0635C28.4916 17.2391 27.9184 17.6262 27.5096 18.1647C27.1007 18.7031 26.8791 19.3629 26.8791 20.0416V21.5833C26.8792 22.2604 27.0999 22.9186 27.507 23.4563C27.9142 23.9941 28.4851 24.3814 29.1317 24.5586C29.7784 24.7357 30.4647 24.6928 31.0848 24.4365C31.7049 24.1802 32.2243 23.7247 32.5628 23.1403" stroke="#757980" stroke-width="3.5" stroke-linecap="round" stroke-linejoin="round"/>
<path id="Vector_2" d="M5.52344 24.6666V15.4166C5.52344 14.5988 5.84486 13.8146 6.417 13.2363C6.98914 12.6581 7.76512 12.3333 8.57425 12.3333C9.38337 12.3333 10.1594 12.6581 10.7315 13.2363C11.3036 13.8146 11.6251 14.5988 11.6251 15.4166V24.6666M5.52344 20.0416H11.6251M16.2013 12.3333V21.5833M16.2013 21.5833C16.2013 22.401 16.5227 23.1853 17.0948 23.7635C17.667 24.3417 18.443 24.6666 19.2521 24.6666C20.0612 24.6666 20.8372 24.3417 21.4093 23.7635C21.9815 23.1853 22.3029 22.401 22.3029 21.5833V20.0416C22.3029 19.2238 21.9815 18.4396 21.4093 17.8613C20.8372 17.2831 20.0612 16.9583 19.2521 16.9583C18.443 16.9583 17.667 17.2831 17.0948 17.8613C16.5227 18.4396 16.2013 19.2238 16.2013 20.0416V21.5833ZM32.5719 18.4999C32.2361 17.9121 31.7178 17.4528 31.0973 17.1931C30.4769 16.9333 29.789 16.8878 29.1403 17.0635C28.4916 17.2391 27.9184 17.6262 27.5096 18.1647C27.1007 18.7031 26.8791 19.3629 26.8791 20.0416V21.5833C26.8792 22.2604 27.0999 22.9186 27.507 23.4563C27.9142 23.9941 28.4851 24.3814 29.1317 24.5586C29.7784 24.7357 30.4647 24.6928 31.0848 24.4365C31.7049 24.1802 32.2243 23.7247 32.5628 23.1403" stroke="#70BF72" stroke-width="3" stroke-linecap="round" stroke-linejoin="round"/>
</g>
</svg>
