<svg width="12" height="10" viewBox="0 0 12 10" fill="none" xmlns="http://www.w3.org/2000/svg">
<path fill-rule="evenodd" clip-rule="evenodd" d="M5.47768 3.0528L5.50105 3.43816L5.11154 3.39098C3.69373 3.21009 2.45509 2.59664 1.40341 1.56637L0.889261 1.05517L0.756828 1.43267C0.476381 2.27419 0.655555 3.1629 1.23982 3.76062C1.55143 4.09093 1.48131 4.13812 0.943792 3.9415C0.756828 3.87859 0.593234 3.8314 0.577653 3.85499C0.523122 3.91004 0.710087 4.62573 0.8581 4.90886C1.06064 5.30209 1.47352 5.68746 1.92535 5.91554L2.30707 6.09643L1.85524 6.10429C1.41899 6.10429 1.40341 6.11215 1.45015 6.27731C1.60596 6.78852 2.22138 7.33118 2.90692 7.56712L3.38991 7.73228L2.96924 7.98395C2.34602 8.34572 1.61375 8.55021 0.88147 8.56593C0.530912 8.5738 0.242676 8.60526 0.242676 8.62885C0.242676 8.7075 1.19308 9.14792 1.74618 9.32094C3.40549 9.83215 5.3764 9.61194 6.85654 8.73896C7.90821 8.11765 8.95989 6.88289 9.45067 5.68746C9.71553 5.05042 9.9804 3.88645 9.9804 3.32806C9.9804 2.96628 10.0038 2.9191 10.44 2.48654C10.6971 2.23487 10.9386 1.9596 10.9853 1.88096C11.0632 1.73153 11.0554 1.73153 10.6581 1.86523C9.99598 2.10117 9.9025 2.06971 10.2297 1.7158C10.4712 1.46413 10.7594 1.00798 10.7594 0.874279C10.7594 0.850685 10.6426 0.890009 10.5101 0.960791C10.3699 1.03944 10.0583 1.15741 9.8246 1.22819L9.40393 1.36189L9.02221 1.10236C8.81187 0.960791 8.51585 0.803497 8.36004 0.756309C7.96274 0.646204 7.35511 0.661933 6.99676 0.787768C6.02299 1.14168 5.40756 2.05398 5.47768 3.0528Z" fill="white"/>
</svg>
