<svg width="12" height="12" viewBox="0 0 12 12" fill="none" xmlns="http://www.w3.org/2000/svg">
<path d="M11.3499 9.15551C11.3236 8.99329 11.2219 8.85465 11.0697 8.77229L8.81702 7.44468L8.79847 7.4343C8.70402 7.38701 8.59971 7.36277 8.49409 7.36357C8.30536 7.36357 8.12511 7.43509 8.00003 7.56052L7.33515 8.2259C7.30671 8.25294 7.214 8.29208 7.18587 8.29349C7.17817 8.29286 6.41225 8.23769 5.0022 6.82708C3.59467 5.41947 3.53496 4.65097 3.53449 4.65097C3.53527 4.61168 3.57393 4.51925 3.60143 4.49064L4.1684 3.92366C4.36813 3.72341 4.428 3.39143 4.30952 3.13427L3.0574 0.777546C2.96641 0.590178 2.78963 0.474487 2.59351 0.474487C2.45475 0.474487 2.32087 0.532018 2.21621 0.636548L0.670706 2.17903C0.52252 2.32648 0.39492 2.58426 0.367105 2.79175C0.353591 2.89094 0.0793758 5.2585 3.32439 8.50491C6.07927 11.2603 8.22741 11.4743 8.82063 11.4743C8.89287 11.4753 8.9651 11.4715 9.03686 11.4632C9.24366 11.4355 9.50106 11.3082 9.6483 11.1606L11.1926 9.61607C11.3186 9.48938 11.3761 9.32197 11.3499 9.15551Z" fill="#F5F7FA"/>
</svg>
