<svg width="12" height="13" viewBox="0 0 12 13" fill="none" xmlns="http://www.w3.org/2000/svg">
<path fill-rule="evenodd" clip-rule="evenodd" d="M11.4608 1.1343C11.6026 1.27611 11.6506 1.48662 11.5844 1.67591L7.93002 12.117C7.8593 12.319 7.67243 12.4574 7.45855 12.4661C7.24468 12.4748 7.04715 12.3521 6.96021 12.1565L4.95355 7.64153L0.438569 5.63487C0.242967 5.54794 0.120251 5.35041 0.128977 5.13654C0.137702 4.92266 0.2761 4.73578 0.478135 4.66507L10.9192 1.01071C11.1085 0.944456 11.319 0.992495 11.4608 1.1343ZM5.97174 7.36164L7.37953 10.5292L9.84316 3.49022L5.97174 7.36164ZM9.10487 2.75192L2.06592 5.21556L5.23345 6.62335L9.10487 2.75192Z" fill="white"/>
</svg>
