<svg width="37" height="37" viewBox="0 0 37 37" fill="none" xmlns="http://www.w3.org/2000/svg">
<path opacity="0.5" d="M13.8751 10.7916C13.8751 8.17075 15.8792 6.16659 18.5001 6.16659C21.1209 6.16659 23.1251 8.17075 23.1251 10.7916V13.8749H26.2084V10.7916C26.2084 6.47492 22.8167 3.08325 18.5001 3.08325C14.1834 3.08325 10.7917 6.47492 10.7917 10.7916V13.8749H13.8751V10.7916ZM20.8126 22.3541C20.8126 21.1208 19.7334 20.0416 18.5001 20.0416C17.2667 20.0416 16.1876 21.1208 16.1876 22.3541C16.1876 22.9708 16.4959 23.5874 16.9584 24.0499V26.2083C16.9584 27.1333 17.5751 27.7499 18.5001 27.7499C19.4251 27.7499 20.0417 27.1333 20.0417 26.2083V24.0499C20.5042 23.5874 20.8126 22.9708 20.8126 22.3541Z" fill="black"/>
<path d="M26.2084 13.875H10.7917C8.17091 13.875 6.16675 15.8792 6.16675 18.5V29.2917C6.16675 31.9125 8.17091 33.9167 10.7917 33.9167H26.2084C28.8292 33.9167 30.8334 31.9125 30.8334 29.2917V18.5C30.8334 15.8792 28.8292 13.875 26.2084 13.875ZM20.0417 24.05V26.2083C20.0417 27.1333 19.4251 27.75 18.5001 27.75C17.5751 27.75 16.9584 27.1333 16.9584 26.2083V24.05C16.4959 23.5875 16.1876 22.9708 16.1876 22.3542C16.1876 21.1208 17.2667 20.0417 18.5001 20.0417C19.7334 20.0417 20.8126 21.1208 20.8126 22.3542C20.8126 22.9708 20.5042 23.5875 20.0417 24.05Z" fill="#70BF72"/>
</svg>
