<svg width="51" height="40" viewBox="0 0 51 40" fill="none" xmlns="http://www.w3.org/2000/svg">
<path d="M50.666 26.6199C50.666 33.5396 45.0564 39.1492 38.1367 39.1492L19.3428 39.1492C17.4207 39.1492 15.8625 37.591 15.8625 35.6688L15.8625 12.0025C15.8625 8.15817 18.9789 5.04176 22.8232 5.04176L47.1856 5.04177C49.1078 5.04177 50.666 6.59997 50.666 8.52211L50.666 26.6199Z" fill="#E8ECF5"/>
<path d="M0.00012207 19.6673H2.85715L4.51559 23.8154L6.1984 19.6673H8.98278L4.79403 29.5H1.99756L3.14768 26.9L0.00012207 19.6673ZM11.876 19.5018C9.73325 19.5018 8.37743 21.3809 8.37743 23.2482C8.37743 25.3518 9.86647 27.0182 11.8397 27.0182C13.3167 27.0182 13.8735 26.1436 13.8735 26.1436V26.8291H16.3673V19.6673H13.8735V20.3173C13.8613 20.3173 13.244 19.5018 11.876 19.5018ZM12.4087 21.8063C13.4014 21.8063 13.9098 22.5746 13.9098 23.26C13.9098 24.0045 13.3651 24.7373 12.4087 24.7373C11.6218 24.7373 10.9076 24.1109 10.9076 23.2955C10.9076 22.4681 11.4766 21.8063 12.4087 21.8063ZM17.2148 26.829V16.5H19.8176V20.3409C19.8176 20.3409 20.4349 19.5018 21.7302 19.5018C23.3161 19.5018 24.2484 20.66 24.2484 22.3027V26.8291H21.6576V22.9173C21.6576 22.3618 21.3913 21.8181 20.7739 21.8181C20.1444 21.8181 19.8176 22.3618 19.8176 22.9173V26.8291L17.2148 26.829ZM28.6912 19.5019C26.2336 19.5019 24.7689 21.3219 24.7689 23.2838C24.7689 25.5055 26.5363 27.0301 28.7033 27.0301C30.7977 27.0301 32.6256 25.5765 32.6256 23.3192C32.6256 20.8492 30.7007 19.5019 28.6912 19.5019ZM28.7154 21.8183C29.587 21.8183 30.1802 22.5273 30.1802 23.2719C30.1802 23.91 29.6233 24.7019 28.7154 24.7019C27.8801 24.7019 27.2627 24.0519 27.2627 23.2601C27.2627 22.5155 27.7711 21.8183 28.7154 21.8183ZM36.9596 19.5019C34.502 19.5019 33.0372 21.3219 33.0372 23.2838C33.0372 25.5055 34.8046 27.0301 36.9717 27.0301C39.066 27.0301 40.894 25.5765 40.894 23.3192C40.894 20.8492 38.9812 19.5019 36.9596 19.5019ZM36.9837 21.8183C37.8553 21.8183 38.4486 22.5273 38.4486 23.2719C38.4486 23.91 37.8917 24.7019 36.9837 24.7019C36.1484 24.7019 35.531 24.0519 35.531 23.2601C35.531 22.5155 36.0516 21.8183 36.9837 21.8183ZM42.9519 23.6028C43.9083 23.6028 44.6831 24.3591 44.6831 25.2928C44.6831 26.2264 43.9083 26.9828 42.952 26.9828C41.9956 26.9828 41.2208 26.2265 41.2208 25.2928C41.2208 24.3591 41.9956 23.6028 42.952 23.6028H42.9519ZM45.2521 22.9882H42.1407L44.901 16.5H48.0001L45.2521 22.9882Z" fill="#5F01D1"/>
</svg>
