<svg width="13" height="9" viewBox="0 0 13 9" fill="none" xmlns="http://www.w3.org/2000/svg">
<path fill-rule="evenodd" clip-rule="evenodd" d="M10.8638 0.308869C11.375 0.449134 11.7776 0.862423 11.9142 1.38726C12.1624 2.33847 12.1624 4.32318 12.1624 4.32318C12.1624 4.32318 12.1624 6.30782 11.9142 7.2591C11.7776 7.78394 11.375 8.19723 10.8638 8.33756C9.9375 8.59241 6.22263 8.59241 6.22263 8.59241C6.22263 8.59241 2.50776 8.59241 1.58136 8.33756C1.0702 8.19723 0.667641 7.78394 0.531026 7.2591C0.282837 6.30782 0.282837 4.32318 0.282837 4.32318C0.282837 4.32318 0.282837 2.33847 0.531026 1.38726C0.667641 0.862423 1.0702 0.449134 1.58136 0.308869C2.50776 0.0539551 6.22263 0.0539551 6.22263 0.0539551C6.22263 0.0539551 9.9375 0.0539551 10.8638 0.308869ZM5.10893 2.65257V6.36495L8.07883 4.50883L5.10893 2.65257Z" fill="white"/>
</svg>
